<svg width="48" height="48" viewBox="0 0 48 48" fill="none" xmlns="http://www.w3.org/2000/svg">
<path d="M5.4045 42.2994C4.91517 42.2994 4.509 42.1378 4.186 41.8144C3.86267 41.4914 3.701 41.0853 3.701 40.5959C3.701 40.1069 3.86267 39.7008 4.186 39.3774C4.509 39.0544 4.91517 38.8929 5.4045 38.8929H22.2965V14.8485C21.4458 14.5405 20.6888 14.0528 20.0255 13.3855C19.3622 12.7178 18.8765 11.9586 18.5685 11.108H10.965L16.71 24.9994C16.859 25.3058 16.9438 25.6289 16.9645 25.9689C16.9852 26.3089 16.9622 26.6448 16.8955 26.9764C16.5875 28.5084 15.793 29.6634 14.512 30.4414C13.2307 31.2191 11.8615 31.6079 10.4045 31.6079C8.94717 31.6079 7.576 31.2171 6.291 30.4354C5.00567 29.6534 4.213 28.5004 3.913 26.9764C3.84634 26.6448 3.82134 26.3089 3.838 25.9689C3.85467 25.6289 3.93767 25.3058 4.087 24.9994L9.8435 11.108H7.4045C6.91517 11.108 6.509 10.9465 6.186 10.6235C5.86267 10.3001 5.701 9.89395 5.701 9.40495C5.701 8.91562 5.86267 8.50745 6.186 8.18045C6.509 7.85312 6.91517 7.68945 7.4045 7.68945H18.5685C19.0005 6.51479 19.7077 5.55445 20.69 4.80845C21.6727 4.06245 22.776 3.68945 24 3.68945C25.224 3.68945 26.3273 4.06245 27.31 4.80845C28.2923 5.55445 28.9995 6.51479 29.4315 7.68945H40.5955C41.0848 7.68945 41.493 7.85312 41.82 8.18045C42.1473 8.50745 42.311 8.91562 42.311 9.40495C42.311 9.89395 42.1473 10.3001 41.82 10.6235C41.493 10.9465 41.0848 11.108 40.5955 11.108H38.1565L43.913 24.9994C44.0623 25.3058 44.1453 25.6289 44.162 25.9689C44.1787 26.3089 44.1537 26.6448 44.087 26.9764C43.787 28.5084 42.9943 29.6634 41.709 30.4414C40.424 31.2191 39.0528 31.6079 37.5955 31.6079C36.1462 31.6079 34.779 31.2171 33.494 30.4354C32.209 29.6534 31.4165 28.5004 31.1165 26.9764C31.0418 26.6448 31.0148 26.3089 31.0355 25.9689C31.0562 25.6289 31.141 25.3058 31.29 24.9994L37.035 11.108H29.4315C29.1235 11.9586 28.6378 12.7178 27.9745 13.3855C27.3112 14.0528 26.5542 14.5405 25.7035 14.8485V38.8929H42.5955C43.0848 38.8929 43.493 39.0544 43.82 39.3774C44.1473 39.7008 44.311 40.1069 44.311 40.5959C44.311 41.0853 44.1473 41.4914 43.82 41.8144C43.493 42.1378 43.0848 42.2994 42.5955 42.2994H5.4045ZM33.989 25.7614H41.214L37.5955 16.8839L33.989 25.7614ZM6.798 25.7614H14.023L10.4045 16.8839L6.798 25.7614ZM24 11.833C24.684 11.833 25.2597 11.589 25.727 11.101C26.1947 10.613 26.4285 10.0476 26.4285 9.40495C26.4285 8.72095 26.1947 8.14512 25.727 7.67745C25.2597 7.21012 24.684 6.97645 24 6.97645C23.3493 6.97645 22.782 7.21012 22.298 7.67745C21.8137 8.14512 21.5715 8.72095 21.5715 9.40495C21.5715 10.0476 21.8137 10.613 22.298 11.101C22.782 11.589 23.3493 11.833 24 11.833Z" fill="#0047AB"/>
</svg>
