<svg width="48" height="48" viewBox="0 0 48 48" fill="none" xmlns="http://www.w3.org/2000/svg">
<path d="M37.7619 44.2994C33.8466 44.2994 29.8629 43.3581 25.8109 41.4754C21.7586 39.5928 18.0019 36.9208 14.5409 33.4594C11.0796 29.9984 8.40759 26.2398 6.52493 22.1834C4.64226 18.1274 3.70093 14.1458 3.70093 10.2385C3.70093 9.51478 3.94259 8.90912 4.42593 8.42145C4.90926 7.93345 5.51326 7.68945 6.23793 7.68945H13.2259C13.8283 7.68945 14.3339 7.88212 14.7429 8.26745C15.1519 8.65245 15.4391 9.15878 15.6044 9.78645L16.9389 15.877C17.0239 16.4513 17.0148 16.9639 16.9114 17.4149C16.8081 17.8663 16.5874 18.2529 16.2494 18.5749L11.2009 23.5419C12.0359 24.9446 12.9228 26.2554 13.8614 27.4744C14.8001 28.6931 15.8368 29.8533 16.9714 30.9549C18.1731 32.1976 19.4273 33.3219 20.7339 34.3279C22.0409 35.3343 23.4046 36.2134 24.8249 36.9654L29.6349 32.0299C30.0319 31.6073 30.4788 31.3213 30.9754 31.1719C31.4718 31.0229 31.9811 30.9976 32.5034 31.0959L38.2019 32.3604C38.8296 32.5334 39.3359 32.8526 39.7209 33.3179C40.1063 33.7833 40.2989 34.3241 40.2989 34.9404V41.7624C40.2989 42.4871 40.0548 43.0911 39.5664 43.5744C39.0781 44.0578 38.4766 44.2994 37.7619 44.2994ZM9.49793 20.4569L13.5359 16.4404L12.4059 11.108H7.11943C7.17809 12.4603 7.39093 13.8913 7.75793 15.401C8.12526 16.9106 8.70526 18.596 9.49793 20.4569ZM27.9834 38.6549C29.3104 39.2723 30.7559 39.7769 32.3199 40.1689C33.8843 40.5609 35.4044 40.7943 36.8804 40.8689V35.5689L31.9099 34.5404L27.9834 38.6549ZM34.5644 23.1559C31.8641 23.1559 29.5691 22.2086 27.6794 20.3139C25.7894 18.4193 24.8444 16.1218 24.8444 13.4214C24.8444 10.7211 25.7918 8.42412 27.6864 6.53045C29.5811 4.63645 31.8786 3.68945 34.5789 3.68945C37.2793 3.68945 39.5763 4.63978 41.4699 6.54045C43.3639 8.44078 44.3109 10.7393 44.3109 13.436C44.3109 16.1363 43.3606 18.4313 41.4599 20.3209C39.5596 22.2109 37.2611 23.1559 34.5644 23.1559ZM34.5714 19.5839C34.8861 19.5839 35.1594 19.4701 35.3914 19.2425C35.6231 19.0145 35.7389 18.7433 35.7389 18.429V12.7515C35.7389 12.4338 35.6238 12.1598 35.3934 11.9295C35.1634 11.6991 34.8894 11.5839 34.5714 11.5839C34.2571 11.5839 33.9859 11.6991 33.7579 11.9295C33.5303 12.1598 33.4164 12.4338 33.4164 12.7515V18.429C33.4164 18.7433 33.5303 19.0145 33.7579 19.2425C33.9859 19.4701 34.2571 19.5839 34.5714 19.5839ZM34.5714 9.58395C34.8861 9.58395 35.1594 9.47012 35.3914 9.24245C35.6231 9.01445 35.7389 8.74328 35.7389 8.42895C35.7389 8.11428 35.6238 7.84095 35.3934 7.60895C35.1634 7.37728 34.8894 7.26145 34.5714 7.26145C34.2571 7.26145 33.9859 7.37662 33.7579 7.60695C33.5303 7.83695 33.4164 8.11095 33.4164 8.42895C33.4164 8.74328 33.5303 9.01445 33.7579 9.24245C33.9859 9.47012 34.2571 9.58395 34.5714 9.58395Z" fill="#0047AB"/>
</svg>
