<svg width="48" height="48" viewBox="0 0 48 48" fill="none" xmlns="http://www.w3.org/2000/svg">
<path d="M34.6315 35.9408L37.398 38.6948C37.5884 38.8855 37.8099 38.9725 38.0625 38.9558C38.3152 38.9392 38.5367 38.8355 38.727 38.6448C38.9177 38.4545 39.013 38.2268 39.013 37.9618C39.013 37.6968 38.9177 37.4775 38.727 37.3038L35.923 34.5613L38.839 31.6328C39.0297 31.4672 39.125 31.2518 39.125 30.9868C39.125 30.7218 39.0297 30.4942 38.839 30.3038C38.6487 30.1132 38.421 30.0178 38.156 30.0178C37.891 30.0178 37.6757 30.1132 37.51 30.3038L34.6435 33.1579L31.777 30.3038C31.5867 30.1132 31.3735 30.0178 31.1375 30.0178C30.9015 30.0178 30.6884 30.1132 30.498 30.3038C30.3074 30.4942 30.212 30.7198 30.212 30.9808C30.212 31.2418 30.3074 31.4592 30.498 31.6328L33.302 34.4873L30.498 37.3038C30.2994 37.5005 30.2 37.7338 30.2 38.0038C30.2 38.2742 30.296 38.5045 30.488 38.6948C30.6717 38.8935 30.8995 38.9928 31.1715 38.9928C31.4435 38.9928 31.6787 38.8935 31.877 38.6948L34.6315 35.9408ZM5.86853 37.7253V10.2733C5.86853 9.66368 6.12336 9.19835 6.63303 8.87735C7.14303 8.55635 7.68786 8.50785 8.26753 8.73185L33.0455 19.1938C33.5442 19.4178 33.8579 19.7375 33.9865 20.1528C34.1152 20.5678 34.0922 20.9707 33.9175 21.3613C33.7349 21.752 33.4589 22.0385 33.0895 22.2208C32.7205 22.4035 32.2867 22.3868 31.788 22.1708L9.13153 12.6308V20.7678L16.7285 22.7558C17.0349 22.8508 17.2627 23.0175 17.412 23.2558C17.5614 23.4942 17.636 23.7457 17.636 24.0103C17.636 24.275 17.553 24.5177 17.387 24.7383C17.221 24.9587 16.9849 25.1102 16.6785 25.1928L9.13153 27.1308V35.2178L20.138 30.6278C20.6447 30.4118 21.098 30.4065 21.498 30.6118C21.898 30.8175 22.1879 31.1133 22.3675 31.4993C22.5422 31.898 22.5589 32.3132 22.4175 32.7448C22.2762 33.1768 21.9522 33.5048 21.4455 33.7288L8.25553 39.2549C7.68386 39.4868 7.14303 39.4423 6.63303 39.1213C6.12336 38.8003 5.86853 38.335 5.86853 37.7253ZM34.6315 43.9993C32.0395 43.9993 29.8082 43.076 27.9375 41.2294C26.0669 39.3827 25.1315 37.1493 25.1315 34.5293C25.1315 31.9093 26.0669 29.666 27.9375 27.7993C29.8082 25.9327 32.0395 24.9993 34.6315 24.9993C37.2315 24.9993 39.4649 25.9305 41.3315 27.7928C43.1982 29.6548 44.1315 31.907 44.1315 34.5493C44.1315 37.1637 43.1982 39.3923 41.3315 41.2353C39.4649 43.078 37.2315 43.9993 34.6315 43.9993Z" fill="#0047AB"/>
</svg>
