<svg width="48" height="48" viewBox="0 0 48 48" fill="none" xmlns="http://www.w3.org/2000/svg">
<path d="M11.148 32.7632L18.8925 25.0067C19.2322 24.6667 19.632 24.505 20.092 24.5217C20.5517 24.5383 20.962 24.7167 21.323 25.0567C21.6497 25.3967 21.811 25.7945 21.807 26.2502C21.803 26.7058 21.6312 27.1037 21.2915 27.4437L12.3415 36.3817C12.0015 36.7217 11.6017 36.8937 11.142 36.8977C10.682 36.9017 10.2822 36.7337 9.9425 36.3937L4.95449 31.3937C4.60649 31.0537 4.4325 30.6558 4.4325 30.2002C4.4325 29.7445 4.60649 29.3467 4.95449 29.0067C5.29416 28.6667 5.692 28.505 6.14799 28.5217C6.60366 28.5383 7.0015 28.7 7.3415 29.0067L11.148 32.7632ZM11.148 16.7632L18.8925 9.00668C19.2322 8.66668 19.632 8.50501 20.092 8.52168C20.5517 8.53834 20.962 8.71668 21.323 9.05668C21.6497 9.39668 21.811 9.79451 21.807 10.2502C21.803 10.7058 21.6312 11.1037 21.2915 11.4437L12.3415 20.3817C12.0015 20.7217 11.6017 20.8937 11.142 20.8977C10.682 20.9017 10.2822 20.7337 9.9425 20.3937L4.95449 15.3937C4.60649 15.0537 4.4325 14.6558 4.4325 14.2002C4.4325 13.7445 4.60649 13.3467 4.95449 13.0067C5.29416 12.6667 5.692 12.505 6.14799 12.5217C6.60366 12.5383 7.0015 12.7 7.3415 13.0067L11.148 16.7632ZM27.751 33.7037C27.2703 33.7037 26.8663 33.539 26.539 33.2097C26.2117 32.8807 26.048 32.4745 26.048 31.9912C26.048 31.5082 26.2117 31.105 26.539 30.7817C26.8663 30.4583 27.2703 30.2967 27.751 30.2967H42.548C43.0287 30.2967 43.4327 30.4613 43.76 30.7907C44.0873 31.1197 44.251 31.5258 44.251 32.0092C44.251 32.4922 44.0873 32.8953 43.76 33.2187C43.4327 33.542 43.0287 33.7037 42.548 33.7037H27.751ZM27.751 17.7037C27.2703 17.7037 26.8663 17.539 26.539 17.2097C26.2117 16.8807 26.048 16.4745 26.048 15.9912C26.048 15.5082 26.2117 15.105 26.539 14.7817C26.8663 14.4583 27.2703 14.2967 27.751 14.2967H42.548C43.0287 14.2967 43.4327 14.4613 43.76 14.7907C44.0873 15.1197 44.251 15.5258 44.251 16.0092C44.251 16.4922 44.0873 16.8953 43.76 17.2187C43.4327 17.542 43.0287 17.7037 42.548 17.7037H27.751Z" fill="#0047AB"/>
</svg>
