<svg width="48" height="48" viewBox="0 0 48 48" fill="none" xmlns="http://www.w3.org/2000/svg">
<path d="M38.127 13.0957C38.4618 13.0958 38.7408 13.2113 38.9893 13.4609C39.2379 13.7109 39.3535 13.9921 39.3535 14.3301C39.3535 14.6679 39.2384 14.9501 38.9902 15.2012L19.752 34.4268C19.4988 34.6774 19.2218 34.7909 18.8984 34.791C18.5745 34.791 18.2983 34.6772 18.0479 34.4268L8.97266 25.3516C8.72717 25.1012 8.61902 24.8226 8.62793 24.4893C8.63716 24.1466 8.75951 23.8614 9.01172 23.6104C9.26162 23.3617 9.54296 23.2462 9.88086 23.2461C10.218 23.2461 10.5002 23.3602 10.751 23.6074V23.6084L18.5459 31.4404L18.8994 31.7959L19.2539 31.4414L37.2432 13.4639C37.503 13.2113 37.7904 13.0957 38.127 13.0957Z" fill="#0047AB" stroke="#0047AB"/>
</svg>
