<svg width="48" height="48" viewBox="0 0 48 48" fill="none" xmlns="http://www.w3.org/2000/svg">
<path d="M1.72501 31.907V31.054C1.72501 29.19 2.65134 27.9651 4.50401 27.3795C6.35634 26.7935 7.99784 26.5005 9.42851 26.5005C10.8588 26.5005 12.5002 26.7926 14.3525 27.377C16.2052 27.9616 17.1315 29.1873 17.1315 31.054V31.907H1.72501ZM9.42601 23.822C8.33834 23.822 7.40801 23.434 6.63501 22.658C5.86167 21.8816 5.47501 20.9485 5.47501 19.8585C5.47501 18.7685 5.86234 17.8368 6.63701 17.0635C7.41167 16.2905 8.34284 15.904 9.43051 15.904C10.5182 15.904 11.4485 16.2918 12.2215 17.0675C12.9948 17.8435 13.3815 18.7753 13.3815 19.863C13.3815 20.9506 12.9942 21.8825 12.2195 22.6585C11.4448 23.4341 10.5137 23.822 9.42601 23.822ZM19.8665 26.82C19.4838 26.82 19.1678 26.7001 18.9185 26.4605C18.6692 26.2208 18.5445 25.913 18.5445 25.537C18.5445 25.3493 18.6692 25.0245 18.9185 24.5625C19.1772 24.1958 19.3815 23.8125 19.5315 23.4125C19.6815 23.0125 19.7565 22.5955 19.7565 22.1615C19.7565 21.7275 19.6815 21.2985 19.5315 20.8745C19.3815 20.4505 19.1758 20.0758 18.9145 19.7505C18.8065 19.6048 18.7178 19.4533 18.6485 19.296C18.5792 19.1386 18.5445 18.972 18.5445 18.796C18.5445 18.415 18.6695 18.1005 18.9195 17.8525C19.1695 17.6048 19.4852 17.481 19.8665 17.481C20.0348 17.481 20.2078 17.508 20.3855 17.562C20.5632 17.616 20.702 17.7096 20.802 17.843C21.3847 18.451 21.8113 19.1276 22.082 19.873C22.3527 20.6183 22.488 21.3815 22.488 22.1625C22.488 22.9371 22.3423 23.715 22.051 24.496C21.7597 25.2773 21.3315 25.9473 20.7665 26.506C20.6332 26.6393 20.4942 26.725 20.3495 26.763C20.2052 26.801 20.0442 26.82 19.8665 26.82ZM23.6745 30.6235C23.2852 30.6235 22.9687 30.4978 22.725 30.2465C22.4817 29.9955 22.36 29.6778 22.36 29.2935C22.36 29.1161 22.3923 28.9511 22.457 28.7985C22.5217 28.6455 22.6082 28.4973 22.7165 28.354C23.5358 27.395 24.1432 26.3926 24.5385 25.347C24.9338 24.3013 25.1315 23.2388 25.1315 22.1595C25.1315 21.0801 24.9338 20.0083 24.5385 18.944C24.1432 17.8793 23.5352 16.8803 22.7145 15.947C22.6075 15.805 22.5217 15.6595 22.457 15.5105C22.3923 15.3611 22.36 15.1935 22.36 15.0075C22.36 14.6201 22.4848 14.3036 22.7345 14.058C22.9845 13.8123 23.3007 13.6895 23.683 13.6895C23.8787 13.6895 24.0603 13.735 24.228 13.826C24.3957 13.917 24.5495 14.0381 24.6895 14.1895C25.7322 15.3895 26.5113 16.663 27.027 18.01C27.543 19.357 27.801 20.7391 27.801 22.1565C27.801 23.5735 27.543 24.9555 27.027 26.3025C26.5113 27.6498 25.7323 28.9235 24.69 30.1235C24.559 30.2901 24.4093 30.4151 24.241 30.4985C24.073 30.5818 23.8842 30.6235 23.6745 30.6235ZM30.8685 31.907V31.054C30.8685 29.1873 31.7948 27.9616 33.6475 27.377C35.4998 26.7926 37.1412 26.5005 38.5715 26.5005C40.0022 26.5005 41.6437 26.7935 43.496 27.3795C45.3487 27.9651 46.275 29.19 46.275 31.054V31.907H30.8685ZM38.5695 23.822C37.4818 23.822 36.5515 23.434 35.7785 22.658C35.0052 21.8816 34.6185 20.9485 34.6185 19.8585C34.6185 18.7685 35.0058 17.8368 35.7805 17.0635C36.5552 16.2905 37.4863 15.904 38.574 15.904C39.6617 15.904 40.592 16.2918 41.365 17.0675C42.1383 17.8435 42.525 18.7753 42.525 19.863C42.525 20.9506 42.1377 21.8825 41.363 22.6585C40.5883 23.4341 39.6572 23.822 38.5695 23.822Z" fill="#0047AB"/>
</svg>
