<svg width="48" height="48" viewBox="0 0 48 48" fill="none" xmlns="http://www.w3.org/2000/svg">
<path d="M7.10767 40.299C6.16267 40.299 5.35867 39.9675 4.69567 39.3045C4.03267 38.6415 3.70117 37.8375 3.70117 36.8925V30.238C3.70117 29.903 3.79167 29.6125 3.97267 29.3665C4.15401 29.1208 4.39284 28.948 4.68917 28.848C5.71451 28.495 6.52284 27.8575 7.11417 26.9355C7.70551 26.0131 8.00117 25.041 8.00117 24.019C8.00117 22.997 7.70551 22.0165 7.11417 21.0775C6.52284 20.1388 5.71451 19.4973 4.68917 19.153C4.39284 19.053 4.15401 18.8798 3.97267 18.6335C3.79167 18.3868 3.70117 18.0941 3.70117 17.7555V11.1075C3.70117 10.1591 4.03267 9.3523 4.69567 8.68696C5.35867 8.02163 6.16267 7.68896 7.10767 7.68896H40.8927C41.841 7.68896 42.6478 8.02163 43.3132 8.68696C43.9785 9.3523 44.3112 10.1591 44.3112 11.1075V17.7675C44.3112 18.0988 44.2195 18.388 44.0362 18.635C43.8528 18.882 43.6112 19.0555 43.3112 19.1555C42.2858 19.4981 41.4795 20.1388 40.8922 21.0775C40.3048 22.0165 40.0112 22.997 40.0112 24.019C40.0112 25.041 40.3048 26.0131 40.8922 26.9355C41.4795 27.8575 42.2858 28.4938 43.3112 28.8445C43.6075 28.9428 43.8482 29.1158 44.0332 29.3635C44.2185 29.6115 44.3112 29.9011 44.3112 30.2325V36.8925C44.3112 37.8375 43.9785 38.6415 43.3132 39.3045C42.6478 39.9675 41.841 40.299 40.8927 40.299H7.10767ZM7.10767 36.8925H40.8927V31.598C39.626 30.7233 38.5927 29.6305 37.7927 28.3195C36.9927 27.0085 36.5927 25.5671 36.5927 23.9955C36.5927 22.4238 36.9927 20.982 37.7927 19.67C38.5927 18.358 39.626 17.2686 40.8927 16.402V11.1075H7.10767V16.402C8.41567 17.2686 9.45934 18.3586 10.2387 19.672C11.018 20.985 11.4077 22.4263 11.4077 23.996C11.4077 25.5653 11.018 27.006 10.2387 28.318C9.45934 29.63 8.41567 30.7233 7.10767 31.598V36.8925ZM24.0062 33.7785C24.4262 33.7785 24.7922 33.6225 25.1042 33.3105C25.4158 32.9985 25.5717 32.6325 25.5717 32.2125C25.5717 31.7925 25.4165 31.4265 25.1062 31.1145C24.7958 30.8025 24.4272 30.6465 24.0002 30.6465C23.5842 30.6465 23.2182 30.8018 22.9022 31.1125C22.5865 31.4228 22.4287 31.7915 22.4287 32.2185C22.4287 32.6345 22.5865 32.9985 22.9022 33.3105C23.2182 33.6225 23.5862 33.7785 24.0062 33.7785ZM24.0062 25.5715C24.4262 25.5715 24.7922 25.4136 25.1042 25.098C25.4158 24.782 25.5717 24.414 25.5717 23.994C25.5717 23.574 25.4165 23.208 25.1062 22.896C24.7958 22.5843 24.4272 22.4285 24.0002 22.4285C23.5842 22.4285 23.2182 22.5836 22.9022 22.894C22.5865 23.2043 22.4287 23.573 22.4287 24C22.4287 24.416 22.5865 24.782 22.9022 25.098C23.2182 25.4136 23.5862 25.5715 24.0062 25.5715ZM24.0062 17.3535C24.4262 17.3535 24.7922 17.1955 25.1042 16.8795C25.4158 16.5635 25.5717 16.1955 25.5717 15.7755C25.5717 15.3555 25.4165 14.9915 25.1062 14.6835C24.7958 14.3755 24.4272 14.2215 24.0002 14.2215C23.5842 14.2215 23.2182 14.3756 22.9022 14.684C22.5865 14.992 22.4287 15.3578 22.4287 15.7815C22.4287 16.1975 22.5865 16.5635 22.9022 16.8795C23.2182 17.1955 23.5862 17.3535 24.0062 17.3535Z" fill="#0047AB"/>
</svg>
