<svg width="48" height="48" viewBox="0 0 48 48" fill="none" xmlns="http://www.w3.org/2000/svg">
<path d="M37.024 40.7534L25.85 29.6414L28.8915 26.5879L40.065 37.7619C40.489 38.1955 40.701 38.6965 40.701 39.2649C40.701 39.8332 40.489 40.3312 40.065 40.7589C39.6413 41.1869 39.1345 41.4009 38.5445 41.4009C37.9548 41.4009 37.448 41.185 37.024 40.7534ZM7.735 40.7589C7.311 40.3312 7.099 39.8224 7.099 39.2324C7.099 38.6427 7.311 38.1359 7.735 37.7119L20.8085 24.6379L15.423 19.2639L15.323 19.3639C15.023 19.6625 14.675 19.8119 14.279 19.8119C13.883 19.8119 13.531 19.6625 13.223 19.3639L12.2045 18.3454V22.9444C12.2045 23.3257 12.0242 23.5825 11.6635 23.7149C11.3032 23.8475 10.9903 23.7814 10.725 23.5164L4.801 17.5924C4.536 17.327 4.46967 17.0142 4.602 16.6539C4.73467 16.2932 4.99167 16.1129 5.373 16.1129H10.0215L8.863 14.9544C8.547 14.6384 8.389 14.2644 8.389 13.8324C8.389 13.4007 8.551 13.0269 8.875 12.7109L14.3885 7.18688C14.9702 6.60421 15.6083 6.20888 16.303 6.00088C16.9977 5.79288 17.7568 5.68888 18.5805 5.68888C19.2645 5.68888 19.8685 5.78055 20.3925 5.96388C20.9165 6.14721 21.4578 6.44754 22.0165 6.86488C22.2068 7.04754 22.3103 7.25688 22.327 7.49288C22.3437 7.72854 22.2568 7.94171 22.0665 8.13238L17.364 12.8289L18.702 14.1689C19.002 14.4695 19.152 14.8204 19.152 15.2214C19.152 15.6224 19.002 15.9722 18.702 16.2709L18.552 16.4209L23.788 21.6584L29.888 15.5704C29.6293 15.145 29.425 14.6497 29.275 14.0844C29.125 13.519 29.05 12.9224 29.05 12.2944C29.05 10.4934 29.705 8.93588 31.015 7.62188C32.325 6.30788 33.8805 5.65088 35.6815 5.65088C35.9598 5.65088 36.2153 5.66304 36.448 5.68738C36.6807 5.71138 36.8863 5.75571 37.065 5.82038C37.292 5.93371 37.4297 6.11204 37.478 6.35538C37.5267 6.59871 37.4597 6.81171 37.277 6.99438L34.3705 9.91288C34.1878 10.0969 34.0965 10.3045 34.0965 10.5359C34.0965 10.7669 34.1878 10.9737 34.3705 11.1564L36.7815 13.5674C36.9562 13.75 37.1605 13.8414 37.3945 13.8414C37.6285 13.8414 37.8387 13.75 38.025 13.5674L40.8315 10.7489C41.0222 10.5582 41.2642 10.4809 41.5575 10.5169C41.8508 10.5525 42.0582 10.6992 42.1795 10.9569C42.2522 11.1759 42.2985 11.401 42.3185 11.6324C42.3388 11.8637 42.349 12.1177 42.349 12.3944C42.349 14.201 41.6893 15.7579 40.37 17.0649C39.051 18.3722 37.4875 19.0259 35.6795 19.0259C35.0888 19.0259 34.5808 18.9862 34.1555 18.9069C33.7302 18.8275 33.3382 18.7085 32.9795 18.5499L10.738 40.8034C10.3043 41.235 9.80133 41.4425 9.229 41.4259C8.65667 41.4092 8.15867 41.1869 7.735 40.7589Z" fill="#0047AB"/>
</svg>
