<svg width="48" height="48" viewBox="0 0 48 48" fill="none" xmlns="http://www.w3.org/2000/svg">
<path d="M17.6824 22.1109L22.0989 17.6944L18.5399 14.1479L17.1664 15.4979C16.8584 15.8136 16.5024 15.9676 16.0984 15.9599C15.6944 15.9519 15.3384 15.7979 15.0304 15.4979C14.7304 15.1899 14.5804 14.8319 14.5804 14.4239C14.5804 14.0159 14.7304 13.6619 15.0304 13.3619L16.4044 11.9879L12.7379 8.38342L8.33343 12.8119L17.6824 22.1109ZM35.1499 39.6784L39.5664 35.2119L35.8879 31.5454L34.5259 32.9194C34.2179 33.2194 33.8599 33.3694 33.4519 33.3694C33.0439 33.3694 32.6899 33.2154 32.3899 32.9074C32.0823 32.5994 31.9284 32.2414 31.9284 31.8334C31.9284 31.4254 32.0823 31.0676 32.3899 30.7599L33.7519 29.3979L30.2434 25.8769L25.8149 30.3054L35.1499 39.6784ZM7.40443 42.2989C6.91509 42.2989 6.50893 42.1373 6.18593 41.8139C5.86259 41.4909 5.70093 41.0848 5.70093 40.5954V34.7759C5.70093 34.5443 5.73826 34.3331 5.81293 34.1424C5.88759 33.9518 6.01626 33.7651 6.19893 33.5824L15.3414 24.4399L5.51643 14.6269C4.99376 14.0966 4.73876 13.4876 4.75143 12.7999C4.76409 12.1123 5.01909 11.5033 5.51643 10.9729L10.8729 5.52842C11.3953 4.99775 12.0003 4.73242 12.6879 4.73242C13.3756 4.73242 13.9846 4.99375 14.5149 5.51642L24.4399 15.4034L33.2684 6.57492C33.5764 6.26692 33.9198 6.04225 34.2984 5.90092C34.6771 5.75959 35.0576 5.68892 35.4399 5.68892C35.8226 5.68892 36.2033 5.75959 36.5819 5.90092C36.9606 6.04225 37.3039 6.26692 37.6119 6.57492L41.4249 10.3759C41.7329 10.6839 41.9576 11.0273 42.0989 11.4059C42.2403 11.7846 42.3109 12.1653 42.3109 12.5479C42.3109 12.9383 42.2403 13.3228 42.0989 13.7014C41.9576 14.0801 41.7329 14.4234 41.4249 14.7314L32.5964 23.5479L42.4834 33.4349C43.0061 33.9653 43.2674 34.5743 43.2674 35.2619C43.2674 35.9496 43.0061 36.5546 42.4834 37.0769L37.0889 42.4334C36.5586 42.9561 35.9496 43.2174 35.2619 43.2174C34.5743 43.2174 33.9653 42.9561 33.4349 42.4334L23.5859 32.5849L14.3934 41.7889C14.2108 41.9716 14.0241 42.1023 13.8334 42.1809C13.6431 42.2596 13.4359 42.2989 13.2119 42.2989H7.40443ZM8.97593 39.0239H12.4879L31.7434 19.7064L28.2434 16.1944L8.97593 35.4999V39.0239ZM29.9934 17.9444L28.2434 16.1944L31.7434 19.7064L29.9934 17.9444Z" fill="#0047AB"/>
</svg>
