<svg width="48" height="48" viewBox="0 0 48 48" fill="none" xmlns="http://www.w3.org/2000/svg">
<path d="M3.73706 34.5481V15.1436C3.73706 14.1953 4.06856 13.3884 4.73156 12.7231C5.39456 12.0578 6.19856 11.7251 7.14356 11.7251H40.8686C41.8052 11.7251 42.6071 12.0578 43.2741 12.7231C43.9414 13.3884 44.2751 14.1953 44.2751 15.1436V34.5481C44.2751 35.0288 44.1106 35.4328 43.7816 35.7601C43.4526 36.0874 43.0384 36.2511 42.5391 36.2511C42.0607 36.2511 41.6627 36.0903 41.3451 35.7686C41.0274 35.4466 40.8686 35.0476 40.8686 34.5716V31.4306H31.6436V34.5716C31.6436 35.0476 31.4806 35.4466 31.1546 35.7686C30.8286 36.0903 30.4209 36.2511 29.9316 36.2511C29.4482 36.2511 29.0449 36.0874 28.7216 35.7601C28.3986 35.4328 28.2371 35.0288 28.2371 34.5481V15.1436H7.14356V34.5481C7.14356 35.0288 6.97906 35.4328 6.65006 35.7601C6.32106 36.0874 5.91489 36.2511 5.43156 36.2511C4.94823 36.2511 4.54489 36.0874 4.22156 35.7601C3.89856 35.4328 3.73706 35.0288 3.73706 34.5481ZM31.6436 19.9641H40.8686V15.1436H31.6436V19.9641ZM31.6436 28.1076H40.8686V23.2871H31.6436V28.1076Z" fill="#0047AB"/>
</svg>
