<svg width="48" height="48" viewBox="0 0 48 48" fill="none" xmlns="http://www.w3.org/2000/svg">
<path d="M23.1797 40.2994H5.40467C4.92367 40.2994 4.51951 40.1349 4.19217 39.8059C3.86484 39.4769 3.70117 39.0708 3.70117 38.5874C3.70117 38.1041 3.86484 37.7008 4.19217 37.3774C4.51951 37.0544 4.92367 36.8929 5.40467 36.8929H23.1797C23.6593 36.8929 24.0652 37.0574 24.3972 37.3864C24.7288 37.7154 24.8947 38.1216 24.8947 38.6049C24.8947 39.0883 24.7288 39.4914 24.3972 39.8144C24.0652 40.1378 23.6593 40.2994 23.1797 40.2994ZM9.09567 33.8929C8.17267 33.8929 7.37217 33.5539 6.69417 32.8759C6.01617 32.1983 5.67717 31.3978 5.67717 30.4744V11.108C5.67717 10.1846 6.01617 9.38412 6.69417 8.70645C7.37217 8.02845 8.17267 7.68945 9.09567 7.68945H40.6077C41.0887 7.68945 41.4928 7.85628 41.8202 8.18995C42.1475 8.52395 42.3112 8.93212 42.3112 9.41445C42.3112 9.89712 42.1475 10.3001 41.8202 10.6235C41.4928 10.9465 41.0887 11.108 40.6077 11.108H9.09567V30.4744H23.1797C23.6593 30.4744 24.0652 30.6413 24.3972 30.9749C24.7288 31.3086 24.8947 31.7168 24.8947 32.1994C24.8947 32.6821 24.7288 33.0849 24.3972 33.4079C24.0652 33.7313 23.6593 33.8929 23.1797 33.8929H9.09567ZM41.0717 37.0719V17.3355H31.1217V37.0719H41.0717ZM30.4557 40.2994C29.768 40.2994 29.1692 40.0444 28.6592 39.5344C28.1495 39.0248 27.8947 38.4261 27.8947 37.7384V16.657C27.8947 15.9673 28.1495 15.3701 28.6592 14.8654C29.1692 14.3605 29.768 14.108 30.4557 14.108H41.7502C42.4378 14.108 43.0365 14.3605 43.5462 14.8654C44.0562 15.3701 44.3112 15.9673 44.3112 16.657V37.7384C44.3112 38.4261 44.0562 39.0248 43.5462 39.5344C43.0365 40.0444 42.4378 40.2994 41.7502 40.2994H30.4557ZM36.1217 22.5145C36.5493 22.5145 36.9223 22.3564 37.2407 22.0404C37.5587 21.7248 37.7177 21.3549 37.7177 20.9309C37.7177 20.5033 37.5587 20.1304 37.2407 19.8124C36.9223 19.4944 36.5413 19.3355 36.0977 19.3355C35.69 19.3355 35.3282 19.4944 35.0122 19.8124C34.6962 20.1304 34.5382 20.5113 34.5382 20.955C34.5382 21.363 34.6962 21.7248 35.0122 22.0404C35.3282 22.3564 35.698 22.5145 36.1217 22.5145Z" fill="#0047AB"/>
</svg>
