<svg width="48" height="48" viewBox="0 0 48 48" fill="none" xmlns="http://www.w3.org/2000/svg">
<path d="M17.4185 44.2994C16.4702 44.2994 15.6633 43.9679 14.998 43.3049C14.3327 42.6419 14 41.8379 14 40.8929V31.8854H10.402C9.13232 31.8854 8.03149 31.4491 7.09949 30.5764C6.16716 29.7041 5.70099 28.6281 5.70099 27.3484C5.70099 26.3811 5.94582 25.4824 6.43549 24.6524C6.92516 23.8224 7.61882 23.2128 8.51649 22.8234L22.423 16.883V14.8825C21.1897 14.5545 20.1873 13.8801 19.416 12.8595C18.6443 11.8391 18.2585 10.6876 18.2585 9.40495C18.2585 7.81729 18.8255 6.46778 19.9595 5.35645C21.0935 4.24512 22.4547 3.68945 24.043 3.68945C25.1877 3.68945 26.2445 4.00279 27.2135 4.62945C28.1822 5.25612 28.9082 6.09062 29.3915 7.13295C29.4662 7.27429 29.5035 7.50695 29.5035 7.83095C29.5035 8.29862 29.348 8.68745 29.037 8.99745C28.7263 9.30745 28.3408 9.46245 27.8805 9.46245C27.5355 9.46245 27.2337 9.36778 26.975 9.17845C26.7167 8.98912 26.5217 8.74312 26.39 8.44045C26.1897 7.98045 25.8702 7.62145 25.4315 7.36345C24.9928 7.10545 24.5322 6.97645 24.0495 6.97645C23.3655 6.97645 22.7712 7.20995 22.2665 7.67695C21.7622 8.14429 21.51 8.72212 21.51 9.41045C21.51 10.1558 21.7647 10.7831 22.274 11.2925C22.7833 11.8021 23.4067 12.057 24.144 12.057C24.5873 12.057 24.9712 12.2084 25.2955 12.5114C25.6195 12.8148 25.7815 13.1905 25.7815 13.6385V16.8355L39.4955 22.8234C40.3828 23.2134 41.0738 23.8238 41.5685 24.6544C42.0635 25.4854 42.311 26.3849 42.311 27.3529C42.311 28.6289 41.8437 29.7033 40.909 30.5759C39.9747 31.4489 38.871 31.8854 37.598 31.8854H34.012V40.8929C34.012 41.8379 33.6793 42.6419 33.014 43.3049C32.3487 43.9679 31.5418 44.2994 30.5935 44.2994H17.4185ZM10.402 28.5984H14.325C14.457 27.8808 14.8095 27.2883 15.3825 26.8209C15.9552 26.3536 16.6338 26.1199 17.4185 26.1199H30.5935C31.3782 26.1199 32.0568 26.3536 32.6295 26.8209C33.2025 27.2883 33.555 27.8808 33.687 28.5984H37.598C37.9647 28.5984 38.298 28.4771 38.598 28.2344C38.898 27.9918 39.048 27.6851 39.048 27.3144C39.048 27.0118 38.9667 26.7426 38.804 26.5069C38.6413 26.2713 38.4227 26.0851 38.148 25.9484L24.15 19.6364L9.85349 25.9479C9.59382 26.0816 9.38066 26.2671 9.21399 26.5044C9.04732 26.7418 8.96399 26.9951 8.96399 27.2644C8.96399 27.6351 9.10566 27.9501 9.38899 28.2094C9.67232 28.4688 10.01 28.5984 10.402 28.5984ZM17.263 41.0244H30.737V29.3829H17.263V41.0244Z" fill="#0047AB"/>
</svg>
