<svg width="80" height="80" viewBox="0 0 80 80" fill="none" xmlns="http://www.w3.org/2000/svg">
<path d="M17.4106 65.7559C14.9229 63.2026 12.9826 60.2512 11.5898 56.9017C10.1976 53.5528 9.50146 50.1278 9.50146 46.6267C9.50146 42.5317 10.2231 38.7737 11.6665 35.3526C13.1098 31.9314 15.2615 28.7909 18.1215 25.9309C21.6987 22.367 26.7981 19.8034 33.4198 18.2401C40.042 16.6767 48.167 16.0073 57.7948 16.2317C59.0387 16.2873 60.1717 16.5395 61.194 16.9884C62.2156 17.4367 63.1406 18.062 63.969 18.8642C64.7801 19.677 65.4231 20.5948 65.8981 21.6175C66.3726 22.6403 66.6348 23.7806 66.6848 25.0384C66.8381 29.8523 66.7759 34.2987 66.4981 38.3776C66.2203 42.457 65.6787 46.1701 64.8731 49.5167C64.0676 52.8628 63.0145 55.8406 61.714 58.4501C60.4134 61.0589 58.844 63.2851 57.0056 65.1284C54.1729 67.9745 51.0884 70.1334 47.7523 71.6051C44.4162 73.0762 40.8565 73.8117 37.0731 73.8117C33.1642 73.8117 29.5862 73.1623 26.339 71.8634C23.0912 70.5645 20.1151 68.5287 17.4106 65.7559ZM26.4331 65.2376C27.8309 66.182 29.4442 66.8976 31.2731 67.3842C33.102 67.8709 35.0317 68.1142 37.0623 68.1142C39.9823 68.1142 42.817 67.5064 45.5665 66.2909C48.3153 65.0753 50.809 63.3209 53.0473 61.0276C54.6401 59.4209 55.9676 57.3362 57.0298 54.7734C58.092 52.2106 58.9365 49.2534 59.5631 45.9017C60.1898 42.5495 60.5945 38.8531 60.7773 34.8126C60.9595 30.772 60.9462 26.4776 60.7373 21.9292C55.5551 21.8048 50.9076 21.8709 46.7948 22.1276C42.6826 22.3842 39.0531 22.8459 35.9065 23.5126C32.7598 24.1792 30.0609 25.0298 27.8098 26.0642C25.5587 27.0987 23.7306 28.3459 22.3256 29.8059C20.0323 32.142 18.2679 34.6389 17.0323 37.2967C15.7967 39.9545 15.179 42.6473 15.179 45.3751C15.179 47.9845 15.7317 50.7356 16.8373 53.6284C17.9434 56.5212 19.3317 58.8498 21.0023 60.6142C23.8629 55.2492 27.3287 50.4267 31.3998 46.1467C35.4715 41.8667 39.8659 38.4434 44.5831 35.8767C39.8031 40.0567 35.9198 44.5706 32.9331 49.4184C29.9459 54.2662 27.7792 59.5392 26.4331 65.2376Z" fill="#0047AB"/>
</svg>
