<svg width="48" height="48" viewBox="0 0 48 48" fill="none" xmlns="http://www.w3.org/2000/svg">
<path d="M21.001 38.4037V29.2132L13.027 33.8142C12.2887 34.2209 11.5297 34.3309 10.75 34.1442C9.97038 33.9575 9.37321 33.495 8.95854 32.7567C8.55221 32.0184 8.44438 31.251 8.63504 30.4547C8.82538 29.6584 9.28988 29.0529 10.0285 28.6382L18.014 23.9992L10.09 19.3982C9.35171 18.9915 8.87704 18.392 8.66604 17.5997C8.45471 16.8074 8.55221 16.042 8.95854 15.3037C9.37321 14.573 9.97238 14.1105 10.756 13.9162C11.5397 13.7215 12.3007 13.8314 13.039 14.2457L21.001 18.8352V9.5827C21.001 8.74437 21.2894 8.03704 21.866 7.4607C22.4424 6.88404 23.1537 6.5957 24 6.5957C24.8464 6.5957 25.5577 6.88404 26.134 7.4607C26.7107 8.03704 26.999 8.74437 26.999 9.5827V18.8352L34.973 14.2342C35.7114 13.8275 36.4704 13.7195 37.25 13.9102C38.0297 14.1005 38.6229 14.565 39.0295 15.3037C39.4439 16.042 39.5474 16.8074 39.34 17.5997C39.133 18.392 38.6602 18.9915 37.9215 19.3982L29.998 23.9992L37.9715 28.6382C38.7102 29.0529 39.1747 29.6584 39.365 30.4547C39.5557 31.251 39.4439 32.0144 39.0295 32.7447C38.6229 33.4834 38.0297 33.9479 37.25 34.1382C36.4704 34.3289 35.7114 34.2209 34.973 33.8142L26.999 29.2132V38.4037C26.999 39.25 26.7107 39.9614 26.134 40.5377C25.5577 41.1144 24.8464 41.4027 24 41.4027C23.1537 41.4027 22.4424 41.1144 21.866 40.5377C21.2894 39.9614 21.001 39.25 21.001 38.4037Z" fill="#0047AB"/>
</svg>
