<svg width="41" height="41" viewBox="0 0 41 41" fill="none" xmlns="http://www.w3.org/2000/svg">
<path d="M15.799 18.7445V30.2155C15.799 30.6488 15.9407 31.0072 16.224 31.2905C16.5073 31.5738 16.8657 31.7155 17.299 31.7155C17.7323 31.7155 18.0907 31.5738 18.374 31.2905C18.6573 31.0072 18.799 30.6488 18.799 30.2155V18.6165C18.799 18.4248 18.772 18.233 18.718 18.041C18.664 17.8493 18.5957 17.66 18.513 17.473L15.5505 11.4975C15.3828 11.1288 15.0907 10.8778 14.674 10.7445C14.2573 10.6112 13.8657 10.6445 13.499 10.8445C13.1323 11.0192 12.8907 11.3052 12.774 11.7025C12.6573 12.0998 12.6823 12.4805 12.849 12.8445L15.799 18.7445ZM24.799 18.7445L27.749 12.8445C27.9157 12.4778 27.9407 12.0965 27.824 11.7005C27.7073 11.3045 27.4657 11.0192 27.099 10.8445C26.7323 10.6778 26.3407 10.6528 25.924 10.7695C25.5073 10.8862 25.2152 11.1288 25.0475 11.4975L22.085 17.473C22.0023 17.66 21.934 17.8493 21.88 18.041C21.826 18.233 21.799 18.4248 21.799 18.6165V30.2155C21.799 30.6488 21.9407 31.0072 22.224 31.2905C22.5073 31.5738 22.8657 31.7155 23.299 31.7155C23.7323 31.7155 24.0907 31.5738 24.374 31.2905C24.6573 31.0072 24.799 30.6488 24.799 30.2155V18.7445ZM28.499 21.9445C28.8657 22.1192 29.2573 22.1473 29.674 22.029C30.0907 21.9107 30.3823 21.6658 30.549 21.2945L32.749 16.8445C32.9157 16.4778 32.9323 16.0965 32.799 15.7005C32.6657 15.3045 32.4157 15.0192 32.049 14.8445C31.6823 14.6778 31.299 14.6612 30.899 14.7945C30.499 14.9278 30.2157 15.1778 30.049 15.5445L27.849 19.9445C27.6823 20.3192 27.6573 20.705 27.774 21.102C27.8907 21.4987 28.1323 21.7795 28.499 21.9445ZM12.049 21.9505C12.4157 21.7798 12.6657 21.4965 12.799 21.1005C12.9323 20.7045 12.9157 20.3192 12.749 19.9445L10.549 15.4945C10.3823 15.1278 10.0907 14.8862 9.674 14.7695C9.25733 14.6528 8.86567 14.6778 8.499 14.8445C8.13233 15.0192 7.89067 15.3052 7.774 15.7025C7.65733 16.0998 7.68233 16.4805 7.849 16.8445L10.049 21.2945C10.2157 21.6658 10.499 21.9107 10.899 22.029C11.299 22.1473 11.6823 22.1212 12.049 21.9505ZM20.3005 40.61C17.5185 40.61 14.8928 40.0787 12.4235 39.016C9.9545 37.9533 7.798 36.5 5.954 34.656C4.11 32.812 2.65667 30.656 1.594 28.188C0.531334 25.72 0 23.0948 0 20.3125C0 17.4972 0.531334 14.8548 1.594 12.3855C2.65667 9.9165 4.10933 7.76817 5.952 5.9405C7.79467 4.1125 9.95033 2.6655 12.419 1.5995C14.8877 0.533166 17.5135 0 20.2965 0C23.1125 0 25.7557 0.532832 28.226 1.5985C30.696 2.66416 32.8445 4.11033 34.6715 5.937C36.4988 7.76367 37.9453 9.91166 39.011 12.381C40.077 14.8503 40.61 17.4937 40.61 20.311C40.61 23.0943 40.0768 25.7205 39.0105 28.1895C37.9445 30.6585 36.4975 32.8145 34.6695 34.6575C32.8418 36.5005 30.694 37.9533 28.226 39.016C25.758 40.0787 23.1162 40.61 20.3005 40.61ZM20.299 37.2035C25.0003 37.2035 28.9912 35.5577 32.2715 32.266C35.5515 28.974 37.1915 24.989 37.1915 20.311C37.1915 15.6097 35.5515 11.6188 32.2715 8.3385C28.9912 5.0585 24.9983 3.4185 20.293 3.4185C15.621 3.4185 11.6385 5.0585 8.3455 8.3385C5.05283 11.6188 3.4065 15.6117 3.4065 20.317C3.4065 24.989 5.05233 28.9715 8.344 32.2645C11.636 35.5572 15.621 37.2035 20.299 37.2035Z" fill="#0047AB"/>
</svg>
