<svg width="48" height="48" viewBox="0 0 48 48" fill="none" xmlns="http://www.w3.org/2000/svg">
<path d="M29.841 37C28.4803 37 27.3333 36.5303 26.4 35.591C25.4667 34.6513 25 33.5013 25 32.141C25 30.7803 25.4697 29.6333 26.409 28.7C27.3487 27.7666 28.4987 27.3 29.859 27.3C31.2197 27.3 32.3667 27.7696 33.3 28.709C34.2333 29.6486 34.7 30.7986 34.7 32.159C34.7 33.5196 34.2303 34.6666 33.291 35.6C32.3513 36.5333 31.2013 37 29.841 37ZM9.10749 44.299C8.18749 44.299 7.38982 43.9611 6.71449 43.2855C6.03882 42.6101 5.70099 41.8125 5.70099 40.8925V10.1075C5.70099 9.18413 6.03882 8.38363 6.71449 7.70596C7.38982 7.02796 8.18749 6.68896 9.10749 6.68896H12.25V5.39646C12.25 4.91813 12.416 4.51396 12.748 4.18396C13.0803 3.85396 13.4843 3.68896 13.96 3.68896C14.4497 3.68896 14.8627 3.85396 15.199 4.18396C15.5353 4.51396 15.7035 4.91813 15.7035 5.39646V6.68896H32.2965V5.39646C32.2965 4.91813 32.4627 4.51396 32.795 4.18396C33.127 3.85396 33.5308 3.68896 34.0065 3.68896C34.4965 3.68896 34.9095 3.85396 35.2455 4.18396C35.5818 4.51396 35.75 4.91813 35.75 5.39646V6.68896H38.8925C39.8158 6.68896 40.6163 7.02796 41.294 7.70596C41.972 8.38363 42.311 9.18413 42.311 10.1075V40.8925C42.311 41.8125 41.972 42.6101 41.294 43.2855C40.6163 43.9611 39.8158 44.299 38.8925 44.299H9.10749ZM9.10749 40.8925H38.8925V19.5H9.10749V40.8925ZM9.10749 16.5H38.8925V10.1075H9.10749V16.5Z" fill="#0047AB"/>
</svg>
