<svg width="48" height="48" viewBox="0 0 48 48" fill="none" xmlns="http://www.w3.org/2000/svg">
<path d="M9.40467 44.7177C8.91534 44.7177 8.50917 44.556 8.18617 44.2327C7.86284 43.9097 7.70117 43.5035 7.70117 43.0142C7.70117 42.5252 7.86284 42.117 8.18617 41.7897C8.50917 41.4627 8.91534 41.2992 9.40467 41.2992H38.5957C39.085 41.2992 39.4932 41.4627 39.8202 41.7897C40.1475 42.117 40.3112 42.5252 40.3112 43.0142C40.3112 43.5035 40.1475 43.9097 39.8202 44.2327C39.4932 44.556 39.085 44.7177 38.5957 44.7177H9.40467ZM24.1002 38.6272C23.8762 38.6272 23.665 38.586 23.4667 38.5037C23.268 38.421 23.0773 38.2884 22.8947 38.1057L17.4067 32.6057C17.0827 32.2817 16.929 31.8935 16.9457 31.4412C16.9623 30.9885 17.1367 30.6002 17.4687 30.2762C17.7927 29.9445 18.1808 29.7805 18.6332 29.7842C19.0858 29.7882 19.4742 29.9522 19.7982 30.2762L22.4687 32.9967V14.9917L19.7482 17.7122C19.4162 18.0442 19.0342 18.2102 18.6022 18.2102C18.1705 18.2102 17.7927 18.0442 17.4687 17.7122C17.1367 17.3882 16.9707 17 16.9707 16.5477C16.9707 16.095 17.1367 15.7067 17.4687 15.3827L22.8947 9.89471C23.0773 9.71205 23.268 9.57938 23.4667 9.49671C23.665 9.41438 23.8762 9.37321 24.1002 9.37321C24.3242 9.37321 24.5353 9.41438 24.7337 9.49671C24.9323 9.57938 25.123 9.71205 25.3057 9.89471L30.7937 15.3827C31.1177 15.7147 31.2797 16.0985 31.2797 16.5342C31.2797 16.9702 31.1137 17.3502 30.7817 17.6742C30.4577 18.0059 30.0695 18.1699 29.6172 18.1662C29.1645 18.1622 28.7762 17.9942 28.4522 17.6622L25.7317 14.9917V32.9967L28.4522 30.2762C28.7842 29.9522 29.1745 29.7965 29.6232 29.8092C30.0715 29.8222 30.4577 29.9945 30.7817 30.3262C31.1137 30.6502 31.2797 31.0385 31.2797 31.4912C31.2797 31.9435 31.1137 32.3317 30.7817 32.6557L25.3057 38.1057C25.123 38.2884 24.9323 38.421 24.7337 38.5037C24.5353 38.586 24.3242 38.6272 24.1002 38.6272ZM9.40467 6.68922C8.91534 6.68922 8.50917 6.52771 8.18617 6.20472C7.86284 5.88138 7.70117 5.47521 7.70117 4.98621C7.70117 4.49688 7.86284 4.09071 8.18617 3.76771C8.50917 3.44438 8.91534 3.28271 9.40467 3.28271H38.5957C39.085 3.28271 39.4932 3.44438 39.8202 3.76771C40.1475 4.09071 40.3112 4.49688 40.3112 4.98621C40.3112 5.47521 40.1475 5.88138 39.8202 6.20472C39.4932 6.52771 39.085 6.68922 38.5957 6.68922H9.40467Z" fill="#0047AB"/>
</svg>
