<svg width="48" height="48" viewBox="0 0 48 48" fill="none" xmlns="http://www.w3.org/2000/svg">
<path d="M24 35.038C24.1687 35.038 24.3393 35.0026 24.512 34.932C24.6847 34.8613 24.8492 34.7593 25.0055 34.626C25.5988 34.0926 26.3212 33.4113 27.1725 32.582C28.0242 31.7526 28.8437 30.8556 29.631 29.891C30.4183 28.9263 31.0933 27.936 31.656 26.92C32.2187 25.904 32.5 24.964 32.5 24.1C32.5 22.806 32.075 21.7325 31.225 20.8795C30.375 20.0265 29.3 19.6 28 19.6C27.2333 19.6 26.5 19.7916 25.8 20.175C25.1 20.5583 24.5 21.0166 24 21.55C23.5 21.0166 22.8987 20.5583 22.196 20.175C21.4933 19.7916 20.7672 19.6 20.0175 19.6C18.7058 19.6 17.625 20.0265 16.775 20.8795C15.925 21.7325 15.5 22.806 15.5 24.1C15.5 24.9666 15.7813 25.9073 16.344 26.922C16.9067 27.9366 17.5817 28.9263 18.369 29.891C19.1563 30.8556 19.9758 31.7526 20.8275 32.582C21.6788 33.4113 22.4012 34.0926 22.9945 34.626C23.1508 34.7593 23.3153 34.8613 23.488 34.932C23.6607 35.0026 23.8313 35.038 24 35.038ZM11.1675 42.1315C10.2308 42.1315 9.42883 41.7978 8.7615 41.1305C8.0945 40.4635 7.761 39.6616 7.761 38.725V22.0815L4.94 24.238C4.57133 24.5286 4.16816 24.6401 3.7305 24.5725C3.2925 24.5048 2.93216 24.2908 2.6495 23.9305C2.3665 23.5701 2.25733 23.165 2.322 22.715C2.387 22.2646 2.604 21.9046 2.973 21.635L21.949 7.19648C22.2553 6.97281 22.5815 6.79664 22.9275 6.66797C23.2735 6.53931 23.6265 6.47498 23.9865 6.47498C24.3545 6.47498 24.712 6.53931 25.059 6.66797C25.406 6.79664 25.7327 6.97281 26.039 7.19648L45.0535 21.685C45.4195 21.955 45.6292 22.315 45.6825 22.765C45.7362 23.215 45.6217 23.6248 45.339 23.9945C45.05 24.3501 44.6955 24.5523 44.2755 24.601C43.8555 24.6496 43.463 24.5326 43.098 24.25L40.227 22.0815V38.725C40.227 39.6616 39.8943 40.4635 39.229 41.1305C38.5637 41.7978 37.7568 42.1315 36.8085 42.1315H11.1675ZM11.036 38.8685H36.952V19.5785L23.988 9.70197L11.036 19.574V38.8685Z" fill="#0047AB"/>
</svg>
