<svg width="48" height="48" viewBox="0 0 48 48" fill="none" xmlns="http://www.w3.org/2000/svg">
<path d="M24.0049 29.662C24.5113 29.662 24.9339 29.49 25.2729 29.146C25.6119 28.802 25.7814 28.3783 25.7814 27.875C25.7814 27.372 25.6123 26.9481 25.2739 26.6035C24.9353 26.2591 24.5129 26.087 24.0069 26.087C23.5006 26.087 23.0759 26.2581 22.7329 26.6005C22.3899 26.9428 22.2184 27.3671 22.2184 27.8735C22.2184 28.3768 22.3896 28.8006 22.7319 29.145C23.0743 29.4896 23.4986 29.662 24.0049 29.662ZM24.0089 22.6215C24.4633 22.6215 24.8373 22.4726 25.1309 22.175C25.4246 21.877 25.5714 21.5011 25.5714 21.0475V11.5715C25.5714 11.1265 25.4218 10.7533 25.1224 10.452C24.8228 10.1506 24.4456 9.99996 23.9909 9.99996C23.5366 9.99996 23.1626 10.149 22.8689 10.447C22.5753 10.7446 22.4284 11.1203 22.4284 11.574V21.05C22.4284 21.4953 22.5781 21.8686 22.8774 22.17C23.1771 22.471 23.5543 22.6215 24.0089 22.6215ZM11.7009 36.299L6.60993 41.39C6.07126 41.9286 5.45176 42.0528 4.75143 41.7625C4.05109 41.4725 3.70093 40.9545 3.70093 40.2085V7.10746C3.70093 6.18413 4.03876 5.38363 4.71443 4.70596C5.38976 4.02796 6.18743 3.68896 7.10743 3.68896H40.8924C41.8158 3.68896 42.6163 4.02796 43.2939 4.70596C43.9719 5.38363 44.3109 6.18413 44.3109 7.10746V32.8925C44.3109 33.8125 43.9719 34.6101 43.2939 35.2855C42.6163 35.9611 41.8158 36.299 40.8924 36.299H11.7009ZM10.4009 32.8925H40.8924V7.10746H7.10743V36.486L10.4009 32.8925Z" fill="#0047AB"/>
</svg>
