<svg width="48" height="48" viewBox="0 0 48 48" fill="none" xmlns="http://www.w3.org/2000/svg">
<path d="M5.70117 40.5959V7.40495C5.70117 6.92495 5.86567 6.51912 6.19467 6.18745C6.52367 5.85545 6.92984 5.68945 7.41317 5.68945C7.89651 5.68945 8.29984 5.85545 8.62317 6.18745C8.94617 6.51912 9.10767 6.92495 9.10767 7.40495V40.5959C9.10767 41.077 8.94317 41.4811 8.61417 41.8084C8.28517 42.1358 7.87901 42.2994 7.39567 42.2994C6.91234 42.2994 6.50917 42.1358 6.18617 41.8084C5.86284 41.4811 5.70117 41.077 5.70117 40.5959ZM38.8927 40.5959V7.40495C38.8927 6.92495 39.0572 6.51912 39.3862 6.18745C39.7152 5.85545 40.121 5.68945 40.6037 5.68945C41.0863 5.68945 41.4915 5.85545 41.8192 6.18745C42.1472 6.51912 42.3112 6.92495 42.3112 7.40495V40.5959C42.3112 41.077 42.1443 41.4811 41.8107 41.8084C41.4767 42.1358 41.0685 42.2994 40.5862 42.2994C40.1035 42.2994 39.7005 42.1358 39.3772 41.8084C39.0542 41.4811 38.8927 41.077 38.8927 40.5959ZM23.9912 17.4059C23.5082 17.4059 23.105 17.2391 22.7817 16.9054C22.4583 16.5721 22.2967 16.1643 22.2967 15.682C22.2967 15.203 22.4613 14.8008 22.7907 14.4755C23.1197 14.1501 23.5258 13.9874 24.0092 13.9874C24.4922 13.9874 24.8953 14.1535 25.2187 14.4855C25.542 14.8178 25.7037 15.224 25.7037 15.704C25.7037 16.1843 25.539 16.5879 25.2097 16.9149C24.8807 17.2423 24.4745 17.4059 23.9912 17.4059ZM15.6937 25.7039C15.2147 25.7039 14.8125 25.5393 14.4872 25.2099C14.1618 24.8809 13.9992 24.4748 13.9992 23.9914C13.9992 23.5084 14.1652 23.1053 14.4972 22.7819C14.8292 22.4586 15.2353 22.2969 15.7157 22.2969C16.196 22.2969 16.5997 22.4616 16.9267 22.7909C17.254 23.1199 17.4177 23.5261 17.4177 24.0094C17.4177 24.4924 17.2508 24.8956 16.9172 25.2189C16.5838 25.5423 16.176 25.7039 15.6937 25.7039ZM23.9912 25.7039C23.5082 25.7039 23.105 25.5393 22.7817 25.2099C22.4583 24.8809 22.2967 24.4748 22.2967 23.9914C22.2967 23.5084 22.4613 23.1053 22.7907 22.7819C23.1197 22.4586 23.5258 22.2969 24.0092 22.2969C24.4922 22.2969 24.8953 22.4616 25.2187 22.7909C25.542 23.1199 25.7037 23.5261 25.7037 24.0094C25.7037 24.4924 25.539 24.8956 25.2097 25.2189C24.8807 25.5423 24.4745 25.7039 23.9912 25.7039ZM32.2967 25.7039C31.8163 25.7039 31.4127 25.5393 31.0857 25.2099C30.7583 24.8809 30.5947 24.4748 30.5947 23.9914C30.5947 23.5084 30.7615 23.1053 31.0952 22.7819C31.4285 22.4586 31.8363 22.2969 32.3187 22.2969C32.7977 22.2969 33.1998 22.4616 33.5252 22.7909C33.8505 23.1199 34.0132 23.5261 34.0132 24.0094C34.0132 24.4924 33.8472 24.8956 33.5152 25.2189C33.1828 25.5423 32.7767 25.7039 32.2967 25.7039ZM23.9912 34.0014C23.5082 34.0014 23.105 33.8354 22.7817 33.5034C22.4583 33.1714 22.2967 32.7653 22.2967 32.2849C22.2967 31.8046 22.4613 31.4009 22.7907 31.0739C23.1197 30.7466 23.5258 30.5829 24.0092 30.5829C24.4922 30.5829 24.8953 30.7498 25.2187 31.0834C25.542 31.4168 25.7037 31.8246 25.7037 32.3069C25.7037 32.7859 25.539 33.1881 25.2097 33.5134C24.8807 33.8388 24.4745 34.0014 23.9912 34.0014ZM23.9912 9.10795C23.5082 9.10795 23.105 8.94195 22.7817 8.60995C22.4583 8.27795 22.2967 7.87179 22.2967 7.39145C22.2967 6.91112 22.4613 6.50745 22.7907 6.18045C23.1197 5.85312 23.5258 5.68945 24.0092 5.68945C24.4922 5.68945 24.8953 5.85628 25.2187 6.18995C25.542 6.52328 25.7037 6.93112 25.7037 7.41345C25.7037 7.89245 25.539 8.29462 25.2097 8.61995C24.8807 8.94529 24.4745 9.10795 23.9912 9.10795ZM23.9912 42.2994C23.5082 42.2994 23.105 42.1341 22.7817 41.8034C22.4583 41.4731 22.2967 41.0689 22.2967 40.5909C22.2967 40.1133 22.4613 39.7108 22.7907 39.3834C23.1197 39.0564 23.5258 38.8929 24.0092 38.8929C24.4922 38.8929 24.8953 39.0589 25.2187 39.3909C25.542 39.7229 25.7037 40.1291 25.7037 40.6094C25.7037 41.0898 25.539 41.4914 25.2097 41.8144C24.8807 42.1378 24.4745 42.2994 23.9912 42.2994Z" fill="#0047AB"/>
</svg>
