<svg width="48" height="48" viewBox="0 0 48 48" fill="none" xmlns="http://www.w3.org/2000/svg">
<path d="M13.2965 40.2964V32.9999C13.2965 32.5192 13.4603 32.1152 13.788 31.7879C14.1153 31.4602 14.5193 31.2964 15 31.2964H22.2965V23.9999C22.2965 23.5192 22.4603 23.1152 22.788 22.7879C23.1153 22.4602 23.5193 22.2964 24 22.2964H31.2965V14.9999C31.2965 14.5192 31.4603 14.1152 31.788 13.7879C32.1153 13.4602 32.5193 13.2964 33 13.2964H40.2965V7.49989C40.2965 7.01922 40.4612 6.61522 40.7905 6.28789C41.1195 5.96022 41.5257 5.79639 42.009 5.79639C42.492 5.79639 42.8952 5.96022 43.2185 6.28789C43.5418 6.61522 43.7035 7.01922 43.7035 7.49989V14.9999C43.7035 15.4806 43.5397 15.8846 43.212 16.2119C42.8847 16.5396 42.4807 16.7034 42 16.7034H34.7035V23.9999C34.7035 24.4806 34.5397 24.8846 34.212 25.2119C33.8847 25.5396 33.4807 25.7034 33 25.7034H25.7035V32.9999C25.7035 33.4806 25.5397 33.8846 25.212 34.2119C24.8847 34.5396 24.4807 34.7034 24 34.7034H16.7035V41.9999C16.7035 42.4806 16.5397 42.8846 16.212 43.2119C15.8847 43.5396 15.4807 43.7034 15 43.7034H7.50001C7.01934 43.7034 6.61534 43.5387 6.28801 43.2094C5.96034 42.8804 5.79651 42.4742 5.79651 41.9909C5.79651 41.5079 5.96034 41.1047 6.28801 40.7814C6.61534 40.4581 7.01934 40.2964 7.50001 40.2964H13.2965Z" fill="#E6EDF7"/>
</svg>
