<svg width="48" height="48" viewBox="0 0 48 48" fill="none" xmlns="http://www.w3.org/2000/svg">
<path d="M29.7869 40.2994C29.3793 40.2994 29.0396 40.1556 28.7679 39.8679C28.4966 39.5806 28.3609 39.2246 28.3609 38.7999C28.3609 37.7156 29.0673 36.8028 30.4799 36.0614C31.8926 35.3201 33.8509 34.9494 36.3549 34.9494C38.8589 34.9494 40.8193 35.3201 42.2359 36.0614C43.6526 36.8028 44.3609 37.7156 44.3609 38.7999C44.3609 39.2246 44.2231 39.5806 43.9474 39.8679C43.6718 40.1556 43.3303 40.2994 42.9229 40.2994H29.7869ZM36.3649 31.5994C35.3543 31.5994 34.4926 31.2444 33.7799 30.5344C33.0673 29.8244 32.7109 28.9661 32.7109 27.9594C32.7109 26.9528 33.0659 26.0911 33.7759 25.3745C34.4859 24.6578 35.3443 24.2994 36.3509 24.2994C37.3576 24.2994 38.2193 24.6564 38.9359 25.3704C39.6526 26.0844 40.0109 26.9428 40.0109 27.9454C40.0109 28.9561 39.6539 29.8178 38.9399 30.5304C38.2259 31.2431 37.3676 31.5994 36.3649 31.5994ZM7.10743 36.8929V11.108V22.2154V21.2994V36.8929ZM7.10743 40.2994C6.18743 40.2994 5.38976 39.9533 4.71443 39.2609C4.03876 38.5689 3.70093 37.7796 3.70093 36.8929V11.108C3.70093 10.218 4.03876 9.42578 4.71443 8.73145C5.38976 8.03678 6.18743 7.68945 7.10743 7.68945H19.5009C19.9656 7.68945 20.4113 7.78478 20.8379 7.97545C21.2649 8.16612 21.6331 8.41612 21.9424 8.72545L24.0554 10.833H40.8924C41.7824 10.833 42.5746 11.1791 43.2689 11.8715C43.9636 12.5635 44.3109 13.3528 44.3109 14.2395V21.9124C44.3109 22.3931 44.1441 22.7971 43.8104 23.1244C43.4764 23.4518 43.0683 23.6154 42.5859 23.6154C42.1033 23.6154 41.7003 23.4518 41.3769 23.1244C41.0539 22.7971 40.8924 22.3931 40.8924 21.9124V14.2395H22.6324L19.5009 11.108H7.10743V36.8929H23.8214C24.3024 36.8929 24.7066 37.0574 25.0339 37.3864C25.3613 37.7154 25.5249 38.1216 25.5249 38.6049C25.5249 39.0883 25.3613 39.4914 25.0339 39.8144C24.7066 40.1378 24.3024 40.2994 23.8214 40.2994H7.10743Z" fill="#0047AB"/>
</svg>
