<svg width="48" height="48" viewBox="0 0 48 48" fill="none" xmlns="http://www.w3.org/2000/svg">
<path d="M33.2652 40.69L41.2602 32.6835C41.6028 32.3438 42.0053 32.1823 42.4677 32.199C42.93 32.2156 43.3285 32.3941 43.6632 32.7345C43.9748 33.0748 44.137 33.4726 44.1497 33.928C44.1623 34.3833 43.9987 34.7808 43.6587 35.1205L34.5207 44.3085C34.178 44.6485 33.7755 44.8185 33.3132 44.8185C32.8508 44.8185 32.4498 44.6485 32.1102 44.3085L27.1217 39.3205C26.782 38.9808 26.6122 38.583 26.6122 38.127C26.6122 37.6713 26.782 37.2735 27.1217 36.9335C27.4617 36.5938 27.8595 36.424 28.3152 36.424C28.7712 36.424 29.169 36.5938 29.5087 36.9335L33.2652 40.69ZM18.3352 30.614L15.9787 32.9705C15.6387 33.3105 15.2408 33.4805 14.7852 33.4805C14.3292 33.4805 13.9313 33.3105 13.5917 32.9705C13.2517 32.6308 13.0817 32.233 13.0817 31.777C13.0817 31.3213 13.2517 30.9235 13.5917 30.5835L15.9482 28.227L13.5917 25.8705C13.2517 25.5308 13.0817 25.133 13.0817 24.677C13.0817 24.2213 13.2517 23.8235 13.5917 23.4835C13.9313 23.1438 14.3292 22.974 14.7852 22.974C15.2408 22.974 15.6387 23.1438 15.9787 23.4835L18.3352 25.84L20.6917 23.4835C21.0313 23.1438 21.4292 22.974 21.8852 22.974C22.3408 22.974 22.7387 23.1438 23.0787 23.4835C23.4183 23.8235 23.5882 24.2213 23.5882 24.677C23.5882 25.133 23.4183 25.5308 23.0787 25.8705L20.7222 28.227L23.0787 30.5835C23.4183 30.9235 23.5882 31.3213 23.5882 31.777C23.5882 32.233 23.4183 32.6308 23.0787 32.9705C22.7387 33.3105 22.3408 33.4805 21.8852 33.4805C21.4292 33.4805 21.0313 33.3105 20.6917 32.9705L18.3352 30.614ZM9.10767 44.299C8.18767 44.299 7.39001 43.9611 6.71467 43.2855C6.03901 42.6101 5.70117 41.8125 5.70117 40.8925V10.1075C5.70117 9.18413 6.03901 8.38363 6.71467 7.70596C7.39001 7.02796 8.18767 6.68896 9.10767 6.68896H12.2502V5.39646C12.2502 4.91813 12.4162 4.51396 12.7482 4.18396C13.0805 3.85396 13.4845 3.68896 13.9602 3.68896C14.4498 3.68896 14.8628 3.85396 15.1992 4.18396C15.5355 4.51396 15.7037 4.91813 15.7037 5.39646V6.68896H32.2967V5.39646C32.2967 4.91813 32.4628 4.51396 32.7952 4.18396C33.1272 3.85396 33.531 3.68896 34.0067 3.68896C34.4967 3.68896 34.9097 3.85396 35.2457 4.18396C35.582 4.51396 35.7502 4.91813 35.7502 5.39646V6.68896H38.8927C39.816 6.68896 40.6165 7.02796 41.2942 7.70596C41.9722 8.38363 42.3112 9.18413 42.3112 10.1075V27.6825C42.3112 28.1821 42.1443 28.593 41.8107 28.915C41.4767 29.237 41.0685 29.398 40.5862 29.398C40.1035 29.398 39.7005 29.2343 39.3772 28.907C39.0542 28.5796 38.8927 28.1755 38.8927 27.6945V19.5H9.10767V40.8925H23.9317C24.4123 40.8925 24.8145 41.057 25.1382 41.386C25.4615 41.715 25.6232 42.1211 25.6232 42.6045C25.6232 43.0878 25.4615 43.491 25.1382 43.814C24.8145 44.1373 24.4123 44.299 23.9317 44.299H9.10767ZM9.10767 16.5H38.8927V10.1075H9.10767V16.5Z" fill="#0047AB"/>
</svg>
