<svg width="48" height="48" viewBox="0 0 48 48" fill="none" xmlns="http://www.w3.org/2000/svg">
<path d="M7.00001 42.5496C6.08001 42.5496 5.28234 42.2106 4.60701 41.5326C3.93134 40.8549 3.59351 40.0544 3.59351 39.1311V16.1211C3.59351 15.6404 3.75801 15.2364 4.08701 14.9091C4.41601 14.5818 4.82217 14.4181 5.30551 14.4181C5.78884 14.4181 6.19201 14.5818 6.51501 14.9091C6.83834 15.2364 7.00001 15.6404 7.00001 16.1211V39.1311H36.2715C36.7525 39.1311 37.1567 39.2956 37.484 39.6246C37.8113 39.9536 37.975 40.3618 37.975 40.8491C37.975 41.3364 37.8113 41.7416 37.484 42.0646C37.1567 42.3879 36.7525 42.5496 36.2715 42.5496H7.00001ZM15.8685 33.5811C14.9452 33.5811 14.1447 33.2433 13.467 32.5676C12.789 31.8923 12.45 31.0946 12.45 30.1746V7.42811C12.45 6.94711 12.6137 6.54294 12.941 6.21561C13.2683 5.88828 13.6725 5.72461 14.1535 5.72461H44.7035C45.1832 5.72461 45.5888 5.88828 45.9205 6.21561C46.2525 6.54294 46.4185 6.94711 46.4185 7.42811V30.1746C46.4185 31.0946 46.0795 31.8923 45.4015 32.5676C44.7238 33.2433 43.9233 33.5811 43 33.5811H15.8685ZM15.8685 30.1746H43V9.13111H15.8685V30.1746ZM21.525 23.8996H26.7815C27.2065 23.8996 27.5628 23.7558 27.8505 23.4681C28.1378 23.1808 28.2815 22.8246 28.2815 22.3996V14.6496C28.2815 14.2246 28.1378 13.8683 27.8505 13.5806C27.5628 13.2933 27.2065 13.1496 26.7815 13.1496H21.525C21.1 13.1496 20.7438 13.2933 20.4565 13.5806C20.1688 13.8683 20.025 14.2246 20.025 14.6496V22.3996C20.025 22.8246 20.1688 23.1808 20.4565 23.4681C20.7438 23.7558 21.1 23.8996 21.525 23.8996ZM32.6315 23.8996H36.6315C37.2315 23.8996 37.7482 23.6829 38.1815 23.2496C38.6148 22.8163 38.8315 22.2996 38.8315 21.6996C38.8315 21.0996 38.6148 20.5829 38.1815 20.1496C37.7482 19.7163 37.2315 19.4996 36.6315 19.4996H32.6315C32.0315 19.4996 31.5148 19.7163 31.0815 20.1496C30.6482 20.5829 30.4315 21.0996 30.4315 21.6996C30.4315 22.2996 30.6482 22.8163 31.0815 23.2496C31.5148 23.6829 32.0315 23.8996 32.6315 23.8996ZM32.6315 17.5496H36.6315C37.2315 17.5496 37.7482 17.3329 38.1815 16.8996C38.6148 16.4663 38.8315 15.9496 38.8315 15.3496C38.8315 14.7496 38.6148 14.2329 38.1815 13.7996C37.7482 13.3663 37.2315 13.1496 36.6315 13.1496H32.6315C32.0315 13.1496 31.5148 13.3663 31.0815 13.7996C30.6482 14.2329 30.4315 14.7496 30.4315 15.3496C30.4315 15.9496 30.6482 16.4663 31.0815 16.8996C31.5148 17.3329 32.0315 17.5496 32.6315 17.5496Z" fill="#0047AB"/>
</svg>
