<svg width="48" height="48" viewBox="0 0 48 48" fill="none" xmlns="http://www.w3.org/2000/svg">
<path d="M24.0225 4.18945C26.7673 4.18945 29.337 4.70982 31.7363 5.74707C34.1454 6.78871 36.2389 8.20013 38.0195 9.98047C39.8001 11.7605 41.2113 13.855 42.2529 16.2686C43.2907 18.6726 43.8115 21.2441 43.8115 23.9873C43.8115 26.73 43.2907 29.2963 42.2529 31.6914C41.2109 34.0973 39.7989 36.1943 38.0166 37.9854C36.2354 39.7753 34.1405 41.1925 31.7285 42.2373C29.3261 43.2776 26.7568 43.7997 24.0156 43.7998C21.2739 43.7998 18.7073 43.2805 16.3115 42.2461C13.9066 41.2078 11.8068 39.7902 10.0088 37.9922C8.21075 36.1942 6.79226 34.0938 5.75391 31.6875C4.71951 29.2904 4.20117 26.7214 4.20117 23.9766C4.20122 21.2322 4.71952 18.6631 5.75391 16.2646C6.79205 13.8579 8.20935 11.7664 10.0049 9.98535C11.8017 8.20282 13.9025 6.79014 16.3105 5.74805C18.7082 4.71015 21.2773 4.18948 24.0225 4.18945ZM23.9941 6.6084C19.1911 6.60841 15.0816 8.29646 11.6943 11.6641C8.30558 15.0333 6.60742 19.1581 6.60742 24.0068C6.60751 28.8107 8.30574 32.9206 11.6914 36.3076C15.078 39.6949 19.1993 41.3926 24.0254 41.3926C28.8417 41.3925 32.9522 39.6952 36.3271 36.3086C39.7015 32.9218 41.3925 28.801 41.3926 23.9756C41.3926 19.1602 39.7045 15.05 36.3359 11.6748C32.9666 8.29894 28.8422 6.6084 23.9941 6.6084ZM24.1689 32.1592C24.5905 32.1592 24.9359 32.3009 25.2334 32.5938C25.5283 32.8841 25.6718 33.2248 25.6719 33.6455C25.6719 34.0666 25.5291 34.4125 25.2324 34.71C24.9346 35.0085 24.5919 35.1504 24.1777 35.1504C23.8082 35.1504 23.4989 35.041 23.2305 34.8154L23.1182 34.7119C22.8226 34.4151 22.6807 34.0714 22.6807 33.6543C22.6807 33.2252 22.8232 32.8812 23.1133 32.5918H23.1143C23.4056 32.3007 23.7475 32.1592 24.1689 32.1592ZM24.3057 12.8262C25.8867 12.8262 27.2391 13.3492 28.3877 14.4004C29.5257 15.442 30.0879 16.721 30.0879 18.2705C30.0879 19.2238 29.8488 20.1128 29.3672 20.9463C28.8724 21.8025 28.2405 22.5434 27.4697 23.1709C26.8807 23.6381 26.366 24.1617 25.9277 24.7422C25.4707 25.3475 25.1791 26.0273 25.0557 26.7744C24.9863 27.0596 24.8666 27.2952 24.6973 27.4902L24.6201 27.5732C24.4378 27.7558 24.2144 27.8506 23.9141 27.8506C23.6233 27.8506 23.3866 27.7686 23.1826 27.6104C23.0119 27.4776 22.9307 27.3166 22.9307 27.0791C22.9307 26.2133 23.1829 25.4378 23.6914 24.7383C24.1689 24.0814 24.7188 23.4763 25.3418 22.9229L25.6133 22.6885L25.6172 22.6855C26.2735 22.1257 26.8635 21.5176 27.3857 20.8613C27.9613 20.1377 28.247 19.2884 28.2471 18.3359C28.2471 17.2682 27.8086 16.3751 26.9648 15.6914L26.8096 15.5703C26.0233 14.9851 25.1195 14.6924 24.1152 14.6924C23.3343 14.6924 22.5957 14.867 21.9072 15.2178C21.2193 15.568 20.6454 16.06 20.1904 16.6885C19.9966 16.9438 19.7716 17.1058 19.5098 17.1924L19.3945 17.2256C19.1134 17.2927 18.8405 17.2465 18.5449 17.0498C18.3703 16.9113 18.2734 16.7497 18.2432 16.541L18.2344 16.4463C18.2218 16.1905 18.2789 15.9516 18.415 15.7197L18.4785 15.6211C19.1506 14.7125 19.9981 14.0234 21.0273 13.5488C22.0724 13.0669 23.1635 12.8262 24.3057 12.8262Z" fill="#0047AB" stroke="#0047AB"/>
</svg>
