<svg width="48" height="48" viewBox="0 0 48 48" fill="none" xmlns="http://www.w3.org/2000/svg">
<path d="M15.1554 44.2032C14.2517 44.2032 13.4799 43.8832 12.8399 43.2432C12.2002 42.6032 11.8804 41.8316 11.8804 40.9282V31.7497C11.8804 29.0817 12.2724 26.4954 13.0564 23.9907C13.8404 21.4857 15.1086 19.0119 16.8609 16.5692C15.3529 16.5962 14.1319 16.1101 13.1979 15.1107C12.2636 14.1114 11.7964 12.9411 11.7964 11.5997V9.19973C11.7964 7.65973 12.3914 6.37656 13.5814 5.35023C14.7714 4.3239 16.1022 3.8814 17.5739 4.02273L36.4239 6.03473C37.0129 6.10906 37.4651 6.38523 37.7804 6.86323C38.0957 7.34123 38.2534 7.7994 38.2534 8.23773V12.5257C38.2534 13.1324 38.0894 13.6306 37.7614 14.0202C37.4334 14.4102 36.9876 14.6506 36.4239 14.7412L34.4749 14.9052C34.7336 16.2082 35.1862 17.4004 35.8329 18.4817C36.4799 19.5634 37.2207 20.5049 38.0554 21.3062C38.3794 21.6382 38.5787 22.0241 38.6534 22.4637C38.7277 22.9037 38.6571 23.3191 38.4414 23.7097C38.1921 24.1081 37.8454 24.3509 37.4014 24.4382C36.9577 24.5256 36.5739 24.4239 36.2499 24.1332C35.0006 23.0842 33.9282 21.7446 33.0329 20.1142C32.1376 18.4842 31.5106 16.8639 31.1519 15.2532L27.4814 15.6912C27.7721 17.6672 28.2827 19.5091 29.0134 21.2167C29.7444 22.9244 30.7059 24.7162 31.8979 26.5922C32.5392 27.5829 33.0202 28.7091 33.3409 29.9707C33.6612 31.2327 33.8214 32.4757 33.8214 33.6997V40.9282C33.8214 41.8316 33.5016 42.6032 32.8619 43.2432C32.2219 43.8832 31.4501 44.2032 30.5464 44.2032H15.1554ZM15.1214 9.18773V11.5997C15.1214 12.2424 15.3739 12.7327 15.8789 13.0707C16.3836 13.4091 16.9072 13.5282 17.4499 13.4282L34.9784 11.5782V9.14773L17.4499 7.29773C16.9072 7.23906 16.3836 7.37873 15.8789 7.71673C15.3739 8.05473 15.1214 8.54506 15.1214 9.18773ZM15.1554 40.9282H30.5464V33.6997C30.5464 32.8077 30.4297 31.9054 30.1964 30.9927C29.9631 30.0801 29.6171 29.2277 29.1584 28.4357C27.8077 26.1437 26.7634 24.1422 26.0254 22.4312C25.2874 20.7202 24.6771 18.5854 24.1944 16.0267L20.9499 16.3532L19.3879 18.6367C17.9359 20.7207 16.8674 22.8122 16.1824 24.9112C15.4977 27.0102 15.1554 29.2897 15.1554 31.7497V40.9282Z" fill="#0047AB"/>
</svg>
