<svg width="48" height="48" viewBox="0 0 48 48" fill="none" xmlns="http://www.w3.org/2000/svg">
<path d="M24.0225 4.18945C26.7673 4.18945 29.337 4.70982 31.7363 5.74707C34.1454 6.78871 36.2389 8.20013 38.0195 9.98047C39.8001 11.7605 41.2113 13.855 42.2529 16.2686C43.2907 18.6726 43.8115 21.2441 43.8115 23.9873C43.8115 26.73 43.2907 29.2963 42.2529 31.6914C41.2109 34.0973 39.7989 36.1943 38.0166 37.9854C36.2354 39.7753 34.1405 41.1925 31.7285 42.2373C29.3261 43.2776 26.7568 43.7997 24.0156 43.7998C21.2739 43.7998 18.7073 43.2805 16.3115 42.2461C13.9066 41.2078 11.8068 39.7902 10.0088 37.9922C8.21075 36.1942 6.79226 34.0938 5.75391 31.6875C4.71951 29.2904 4.20117 26.7214 4.20117 23.9766C4.20122 21.2322 4.71952 18.6631 5.75391 16.2646C6.79205 13.8579 8.20935 11.7664 10.0049 9.98535C11.8017 8.20282 13.9025 6.79014 16.3105 5.74805C18.7082 4.71015 21.2773 4.18948 24.0225 4.18945ZM23.9941 6.6084C19.1911 6.60841 15.0816 8.29646 11.6943 11.6641C8.30558 15.0333 6.60742 19.1581 6.60742 24.0068C6.60751 28.8107 8.30574 32.9206 11.6914 36.3076C15.078 39.6949 19.1993 41.3926 24.0254 41.3926C28.8417 41.3925 32.9522 39.6952 36.3271 36.3086C39.7015 32.9218 41.3925 28.801 41.3926 23.9756C41.3926 19.1602 39.7045 15.05 36.3359 11.6748C32.9666 8.29894 28.8422 6.6084 23.9941 6.6084ZM24.1436 22.5C24.4827 22.5 24.743 22.6089 24.958 22.8232V22.8242C25.1731 23.0385 25.2812 23.2963 25.2812 23.6318V32.5C25.2812 32.838 25.1738 33.0976 24.9619 33.3115C24.7517 33.5236 24.4948 33.6318 24.1562 33.6318C23.8597 33.6318 23.6241 33.5481 23.4258 33.3838L23.3428 33.3086L23.2666 33.2266C23.1015 33.0289 23.0186 32.7939 23.0186 32.5V23.6318C23.0186 23.2939 23.127 23.0352 23.3389 22.8213C23.549 22.6092 23.8051 22.5 24.1436 22.5ZM24.001 15.3213C24.3906 15.3213 24.6948 15.4489 24.9473 15.7051C25.1976 15.9592 25.33 16.2783 25.3301 16.7002C25.3301 17.0272 25.2348 17.292 25.043 17.5166L24.9551 17.6104C24.7038 17.8547 24.3966 17.9795 24 17.9795C23.6032 17.9795 23.2962 17.8545 23.0449 17.6104C22.7956 17.3681 22.6709 17.0744 22.6709 16.6943C22.6709 16.3279 22.7708 16.0389 22.9619 15.8018L23.0488 15.7031C23.2951 15.4506 23.5998 15.3213 24.001 15.3213Z" fill="#0047AB" stroke="#0047AB"/>
</svg>
