<svg width="48" height="48" viewBox="0 0 48 48" fill="none" xmlns="http://www.w3.org/2000/svg">
<path d="M13.4786 16.1283C13.6626 16.3107 13.8637 16.4018 14.0821 16.4018C14.3007 16.4018 14.5012 16.3107 14.6836 16.1283L17.2286 13.6213C17.4109 13.4497 17.5021 13.2452 17.5021 13.0078C17.5021 12.7705 17.4109 12.5607 17.2286 12.3783L14.6836 9.87132C14.4996 9.68899 14.2984 9.59782 14.0801 9.59782C13.8614 9.59782 13.6609 9.68899 13.4786 9.87132L10.9335 12.3783C10.7512 12.55 10.66 12.7545 10.66 12.9918C10.66 13.2292 10.7512 13.439 10.9335 13.6213L13.4786 16.1283ZM7.10755 28.2628C6.18755 28.2628 5.38988 27.9238 4.71455 27.2458C4.03888 26.5682 3.70105 25.7677 3.70105 24.8443V5.05982C3.70105 4.13982 4.03888 3.34199 4.71455 2.66632C5.38988 1.99099 6.18755 1.65332 7.10755 1.65332H40.8925C41.8159 1.65332 42.6164 1.99099 43.294 2.66632C43.972 3.34199 44.311 4.13982 44.311 5.05982V24.8443C44.311 25.7677 43.972 26.5682 43.294 27.2458C42.6164 27.9238 41.8159 28.2628 40.8925 28.2628H35.711C35.2257 28.2628 34.8269 28.0983 34.5145 27.7693C34.2019 27.4403 34.0455 27.0322 34.0455 26.5448C34.0455 26.0575 34.2092 25.6523 34.5365 25.3293C34.8639 25.006 35.268 24.8443 35.7491 24.8443H40.8925V5.05982H7.10755V24.8443H12.251C12.732 24.8443 13.1362 25.0088 13.4635 25.3378C13.7909 25.6668 13.9546 26.075 13.9546 26.5623C13.9546 27.0497 13.7909 27.455 13.4635 27.7783C13.1362 28.1013 12.732 28.2628 12.251 28.2628H7.10755ZM33.003 13.7018C33.7677 13.7018 34.4167 13.4342 34.95 12.8988C35.4834 12.3638 35.75 11.7138 35.75 10.9488C35.75 10.1922 35.4824 9.54515 34.9471 9.00782C34.4117 8.47049 33.7617 8.20182 32.997 8.20182C32.2324 8.20182 31.5834 8.47149 31.05 9.01082C30.5167 9.55015 30.25 10.1982 30.25 10.9548C30.25 11.7195 30.5177 12.3685 31.053 12.9018C31.5884 13.4352 32.2384 13.7018 33.003 13.7018ZM11.548 46.3583C11.067 46.3583 10.6629 46.1947 10.3355 45.8673C10.0082 45.54 9.84455 45.136 9.84455 44.6553V41.9913C9.84455 40.7927 10.1766 39.6813 10.8406 38.6573C11.5046 37.6333 12.3839 36.8635 13.4786 36.3478C15.1242 35.5812 16.8346 35.0042 18.6096 34.6168C20.3846 34.2295 22.1814 34.0358 24.0001 34.0358C25.8187 34.0358 27.6155 34.2295 29.3905 34.6168C31.1655 35.0042 32.8759 35.5812 34.5215 36.3478C35.6172 36.8605 36.4987 37.6295 37.166 38.6548C37.8337 39.6805 38.1675 40.7927 38.1675 41.9913V44.6553C38.1675 45.136 38.0015 45.54 37.6696 45.8673C37.3379 46.1947 36.932 46.3583 36.452 46.3583H11.548ZM13.215 43.0358H34.785V41.8713C34.6974 41.308 34.4609 40.7875 34.0756 40.3098C33.6905 39.8322 33.1987 39.464 32.6 39.2053C31.2464 38.6023 29.8502 38.1438 28.4116 37.8298C26.9729 37.5155 25.5019 37.3583 23.9986 37.3583C22.4952 37.3583 21.0247 37.5155 19.5871 37.8298C18.1494 38.1438 16.7537 38.6023 15.4001 39.2053C14.8014 39.464 14.3096 39.8322 13.9246 40.3098C13.5392 40.7875 13.3027 41.308 13.215 41.8713V43.0358ZM24.003 32.0358C22.0201 32.0358 20.3312 31.3372 18.9366 29.9398C17.5419 28.5428 16.8446 26.8523 16.8446 24.8683C16.8446 22.895 17.5421 21.2092 18.937 19.8108C20.3321 18.4122 22.0199 17.7128 24.0006 17.7128C25.9812 17.7128 27.6709 18.4122 29.0696 19.8108C30.4682 21.2092 31.1675 22.897 31.1675 24.8743C31.1675 26.8513 30.4692 28.5392 29.0726 29.9378C27.6759 31.3365 25.986 32.0358 24.003 32.0358ZM23.9881 28.7128C25.0601 28.7128 25.9709 28.342 26.7205 27.6003C27.4699 26.8587 27.8446 25.9538 27.8446 24.8858C27.8446 23.8178 27.4737 22.9092 26.7321 22.1598C25.9904 21.4105 25.0837 21.0358 24.0121 21.0358C22.9401 21.0358 22.0312 21.4073 21.2856 22.1503C20.5402 22.893 20.1676 23.795 20.1676 24.8563C20.1676 25.9283 20.5364 26.8392 21.2741 27.5888C22.0117 28.3382 22.9164 28.7128 23.9881 28.7128Z" fill="#0047AB"/>
</svg>
