<svg width="48" height="48" viewBox="0 0 48 48" fill="none" xmlns="http://www.w3.org/2000/svg">
<path d="M16.3602 24.0244L20.3717 20.0124C20.664 19.7204 20.8122 19.3661 20.8162 18.9494C20.8198 18.5328 20.6802 18.1744 20.3972 17.8744C20.0882 17.5744 19.724 17.4244 19.3047 17.4244C18.885 17.4244 18.524 17.5744 18.2217 17.8744L13.2772 22.8189C12.9375 23.1696 12.7677 23.5739 12.7677 24.0319C12.7677 24.4899 12.9375 24.8893 13.2772 25.2299L18.2217 30.1744C18.5217 30.4744 18.88 30.6244 19.2967 30.6244C19.7133 30.6244 20.0783 30.4744 20.3917 30.1744C20.6783 29.8744 20.8198 29.5244 20.8162 29.1244C20.8122 28.7244 20.6602 28.3744 20.3602 28.0744L16.3602 24.0244ZM31.6902 24.0244L27.6287 28.0864C27.3363 28.3784 27.1882 28.7244 27.1842 29.1244C27.1805 29.5244 27.3202 29.8744 27.6032 30.1744C27.9122 30.4744 28.2763 30.6244 28.6957 30.6244C29.1153 30.6244 29.4763 30.4744 29.7787 30.1744L34.7732 25.2299C35.1128 24.8863 35.2827 24.4854 35.2827 24.0274C35.2827 23.5694 35.1128 23.1666 34.7732 22.8189L29.8287 17.8744C29.5287 17.5744 29.1787 17.4244 28.7787 17.4244C28.3787 17.4244 28.022 17.5744 27.7087 17.8744C27.422 18.1744 27.2805 18.5348 27.2842 18.9554C27.2882 19.3761 27.4402 19.7324 27.7402 20.0244L31.6902 24.0244ZM9.10767 42.2994C8.17101 42.2994 7.36901 41.9659 6.70167 41.2989C6.03467 40.6316 5.70117 39.8296 5.70117 38.8929V9.10795C5.70117 8.16795 6.03467 7.36328 6.70167 6.69395C7.36901 6.02428 8.17101 5.68945 9.10767 5.68945H19.0587C19.2733 4.52279 19.8427 3.56445 20.7667 2.81445C21.6903 2.06445 22.7682 1.68945 24.0002 1.68945C25.2322 1.68945 26.31 2.06445 27.2337 2.81445C28.1577 3.56445 28.727 4.52279 28.9417 5.68945H38.8927C39.8327 5.68945 40.6373 6.02428 41.3067 6.69395C41.9763 7.36328 42.3112 8.16795 42.3112 9.10795V38.8929C42.3112 39.8296 41.9763 40.6316 41.3067 41.2989C40.6373 41.9659 39.8327 42.2994 38.8927 42.2994H9.10767ZM9.10767 38.8929H38.8927V9.10795H9.10767V38.8929ZM24.0002 8.22195C24.4945 8.22195 24.9217 8.04195 25.2817 7.68195C25.6417 7.32195 25.8217 6.89478 25.8217 6.40045C25.8217 5.90612 25.6417 5.47895 25.2817 5.11895C24.9217 4.75895 24.4945 4.57895 24.0002 4.57895C23.5058 4.57895 23.0787 4.75895 22.7187 5.11895C22.3587 5.47895 22.1787 5.90612 22.1787 6.40045C22.1787 6.89478 22.3587 7.32195 22.7187 7.68195C23.0787 8.04195 23.5058 8.22195 24.0002 8.22195Z" fill="#0047AB"/>
</svg>
