<svg width="48" height="48" viewBox="0 0 48 48" fill="none" xmlns="http://www.w3.org/2000/svg">
<path d="M16.9902 15.6075C16.5462 15.6075 16.1745 15.4568 15.8752 15.1555C15.5758 14.8545 15.4262 14.4813 15.4262 14.036V11.2675C15.4262 10.8255 15.5775 10.455 15.8802 10.156C16.1828 9.85696 16.558 9.70746 17.0057 9.70746C17.4497 9.70746 17.8193 9.85696 18.1147 10.156C18.41 10.455 18.5577 10.8255 18.5577 11.2675V14.048C18.5577 14.4896 18.4075 14.86 18.1072 15.159C17.8068 15.458 17.4345 15.6075 16.9902 15.6075ZM16.9902 33.574C16.5462 33.574 16.1745 33.4233 15.8752 33.122C15.5758 32.8206 15.4262 32.4473 15.4262 32.002V25.4175C15.4262 24.9755 15.5775 24.605 15.8802 24.306C16.1828 24.007 16.558 23.8575 17.0057 23.8575C17.4497 23.8575 17.8193 24.0081 18.1147 24.3095C18.41 24.6108 18.5577 24.9841 18.5577 25.4295V32.014C18.5577 32.456 18.4075 32.8265 18.1072 33.1255C17.8068 33.4245 17.4345 33.574 16.9902 33.574ZM11.1077 44.299C10.171 44.299 9.369 43.9655 8.70167 43.2985C8.03467 42.6311 7.70117 41.8291 7.70117 40.8925V7.10746C7.70117 6.16746 8.03467 5.3628 8.70167 4.69346C9.369 4.0238 10.171 3.68896 11.1077 3.68896H36.8927C37.8327 3.68896 38.6373 4.0238 39.3067 4.69346C39.9763 5.3628 40.3112 6.16746 40.3112 7.10746V40.8925C40.3112 41.8291 39.9763 42.6311 39.3067 43.2985C38.6373 43.9655 37.8327 44.299 36.8927 44.299H11.1077ZM11.1077 40.8925H36.8927V21.2075H11.1077V40.8925ZM11.1077 18.2075H36.8927V7.10746H11.1077V18.2075Z" fill="#0047AB"/>
</svg>
