<svg width="48" height="48" viewBox="0 0 48 48" fill="none" xmlns="http://www.w3.org/2000/svg">
<path d="M17.8804 40.2994H9.10743C8.18743 40.2994 7.38976 39.9533 6.71443 39.261C6.03876 38.569 5.70093 37.7796 5.70093 36.8929V7.10795C5.70093 6.18462 6.03876 5.38412 6.71443 4.70645C7.38976 4.02845 8.18743 3.68945 9.10743 3.68945H38.8924C39.7824 3.68945 40.5746 4.02845 41.2689 4.70645C41.9636 5.38412 42.3109 6.18462 42.3109 7.10795V36.8929C42.3109 37.7796 41.9636 38.569 41.2689 39.261C40.5746 39.9533 39.7824 40.2994 38.8924 40.2994H30.1314L25.2054 45.2254C24.8628 45.5654 24.4603 45.7355 23.9979 45.7355C23.5356 45.7355 23.1344 45.5654 22.7944 45.2254L17.8804 40.2994ZM9.10743 36.8929H19.2604L23.9999 41.6329L28.7519 36.8929H38.8924V7.10795H9.10743V36.8929ZM24.3489 33.7624C24.8973 33.7624 25.3668 33.5669 25.7574 33.176C26.1481 32.7853 26.3434 32.3111 26.3434 31.7535C26.3434 31.2051 26.1476 30.7356 25.7559 30.345C25.3646 29.9543 24.8928 29.759 24.3404 29.759C23.7881 29.759 23.3186 29.9548 22.9319 30.3465C22.5453 30.7378 22.3519 31.2096 22.3519 31.7619C22.3519 32.3143 22.5463 32.7858 22.9349 33.1765C23.3236 33.5671 23.7949 33.7624 24.3489 33.7624ZM27.6944 16.164C27.6944 16.8203 27.5131 17.4488 27.1504 18.0494C26.7878 18.6501 26.2129 19.3313 25.4259 20.0929C24.8019 20.6836 24.3111 21.1966 23.9534 21.632C23.5954 22.0676 23.3204 22.5033 23.1284 22.9389C23.0028 23.1989 22.9066 23.4873 22.8399 23.804C22.7733 24.1206 22.7106 24.4583 22.6519 24.8169C22.5773 25.209 22.6926 25.5645 22.9979 25.8835C23.3033 26.2028 23.6713 26.3624 24.1019 26.3624C24.4749 26.3624 24.8128 26.226 25.1154 25.9529C25.4181 25.6803 25.6354 25.3056 25.7674 24.829C25.9008 24.278 26.1276 23.7586 26.4479 23.271C26.7683 22.7833 27.2501 22.2225 27.8934 21.5885C28.9378 20.5441 29.6766 19.5979 30.1099 18.75C30.5433 17.902 30.7599 16.9858 30.7599 16.0015C30.7599 14.2181 30.1923 12.8118 29.0569 11.7825C27.9219 10.7531 26.3974 10.2385 24.4834 10.2385C23.0374 10.2385 21.7558 10.5455 20.6384 11.1595C19.5208 11.7738 18.6246 12.6161 17.9499 13.6865C17.7339 14.0434 17.7049 14.4026 17.8629 14.764C18.0209 15.1253 18.3059 15.3893 18.7179 15.556C19.0949 15.7306 19.4744 15.7556 19.8564 15.6309C20.2384 15.5063 20.5708 15.286 20.8534 14.97C21.3028 14.4243 21.8293 14.0083 22.4329 13.722C23.0363 13.4353 23.6999 13.292 24.4239 13.292C25.4586 13.292 26.2624 13.5511 26.8354 14.0695C27.4081 14.5875 27.6944 15.2856 27.6944 16.164Z" fill="#0047AB"/>
</svg>
