<svg width="48" height="48" viewBox="0 0 48 48" fill="none" xmlns="http://www.w3.org/2000/svg">
<path d="M18.239 29.4394V39.0364C18.239 39.9471 17.9215 40.7186 17.2865 41.3509C16.6512 41.9833 15.8797 42.2994 14.972 42.2994C14.064 42.2994 13.2918 41.9808 12.6555 41.3434C12.0192 40.7064 11.701 39.9334 11.701 39.0244V8.96445C11.701 8.05045 12.0197 7.27612 12.657 6.64145C13.294 6.00679 14.067 5.68945 14.976 5.68945H26.2925C29.7105 5.68945 32.568 6.83412 34.865 9.12345C37.1623 11.4125 38.311 14.2281 38.311 17.5705C38.311 20.9128 37.1623 23.7266 34.865 26.0119C32.568 28.2969 29.7105 29.4394 26.2925 29.4394H18.239ZM18.239 23.1764H26.101C27.701 23.1764 29.0343 22.6411 30.101 21.5705C31.1677 20.4998 31.701 19.1665 31.701 17.5705C31.701 15.9745 31.1677 14.6431 30.101 13.5765C29.0343 12.5098 27.701 11.9765 26.101 11.9765H18.239V23.1764Z" fill="#0047AB"/>
</svg>
