<svg width="48" height="48" viewBox="0 0 48 48" fill="none" xmlns="http://www.w3.org/2000/svg">
<path d="M19.9974 23.5941C17.7081 23.5941 15.8364 22.8671 14.3824 21.4131C12.9281 19.9588 12.2009 18.0869 12.2009 15.7976C12.2009 13.5083 12.9281 11.6358 14.3824 10.1801C15.8364 8.72409 17.7081 7.99609 19.9974 7.99609C22.2868 7.99609 24.1613 8.72409 25.6209 10.1801C27.0809 11.6358 27.8109 13.5083 27.8109 15.7976C27.8109 18.0869 27.0809 19.9588 25.6209 21.4131C24.1613 22.8671 22.2868 23.5941 19.9974 23.5941ZM3.70093 36.8476V35.2326C3.70093 33.9773 4.02059 32.8463 4.65993 31.8396C5.29893 30.8333 6.16976 30.0761 7.27243 29.5681C9.20309 28.7094 11.1934 28.0054 13.2434 27.4561C15.2934 26.9068 17.3931 26.6321 19.5424 26.6321C20.0328 26.6321 20.4413 26.7958 20.7679 27.1231C21.0943 27.4504 21.2574 27.8556 21.2574 28.3386C21.2574 28.8299 21.0918 29.2401 20.7604 29.5691C20.4291 29.8981 20.0231 30.0626 19.5424 30.0626C17.6488 30.0626 15.7949 30.2899 13.9809 30.7446C12.1669 31.1993 10.4064 31.8534 8.69943 32.7071C8.23809 32.9711 7.85743 33.3281 7.55743 33.7781C7.25743 34.2284 7.10743 34.7288 7.10743 35.2791V36.8476H19.6044C20.0851 36.8476 20.4891 37.0121 20.8164 37.3411C21.1438 37.6701 21.3074 38.0763 21.3074 38.5596C21.3074 39.0429 21.1438 39.4461 20.8164 39.7691C20.4891 40.0924 20.0851 40.2541 19.6044 40.2541H7.10743C6.16243 40.2541 5.35843 39.9204 4.69543 39.2531C4.03243 38.5858 3.70093 37.7839 3.70093 36.8476ZM33.3194 41.0766L32.9814 38.9626C32.4308 38.8039 31.8718 38.5703 31.3044 38.2616C30.7371 37.9529 30.2613 37.6026 29.8769 37.2106L28.0249 37.5986C27.7346 37.6733 27.4583 37.6549 27.1959 37.5436C26.9336 37.4326 26.7288 37.2516 26.5814 37.0006L26.2744 36.4766C26.0964 36.1863 26.0324 35.8918 26.0824 35.5931C26.1324 35.2944 26.2694 35.0371 26.4934 34.8211L28.1074 33.3071C28.0328 33.0311 27.9974 32.6324 28.0014 32.1111C28.0054 31.5898 28.0408 31.1956 28.1074 30.9286L26.4814 29.3886C26.2661 29.2079 26.1333 28.9636 26.0829 28.6556C26.0326 28.3473 26.0953 28.0641 26.2709 27.8061L26.5814 27.1831C26.7291 26.9291 26.9236 26.7556 27.1649 26.6626C27.4063 26.5699 27.6723 26.5569 27.9629 26.6236L29.8769 27.0116C30.2613 26.6276 30.7371 26.2793 31.3044 25.9666C31.8718 25.6539 32.4308 25.4221 32.9814 25.2711L33.3194 23.1691C33.3878 22.7991 33.5528 22.4989 33.8144 22.2686C34.0761 22.0386 34.3813 21.9236 34.7299 21.9236H35.1804C35.5201 21.9236 35.8201 22.0393 36.0804 22.2706C36.3408 22.5019 36.5081 22.7974 36.5824 23.1571L36.9244 25.2696C37.4648 25.4216 38.0206 25.6539 38.5919 25.9666C39.1633 26.2793 39.6404 26.6276 40.0234 27.0116L41.8889 26.6236C42.1716 26.5569 42.4453 26.5773 42.7099 26.6846C42.9746 26.7923 43.1781 26.9751 43.3204 27.2331L43.6259 27.7416C43.8049 28.0426 43.8674 28.3404 43.8134 28.6351C43.7594 28.9294 43.6204 29.1846 43.3964 29.4006L41.7824 30.9266C41.8651 31.1999 41.9044 31.5959 41.9004 32.1146C41.8964 32.6336 41.8571 33.0311 41.7824 33.3071L43.3929 34.8176C43.6193 35.0106 43.7594 35.2628 43.8134 35.5741C43.8674 35.8854 43.8071 36.1696 43.6324 36.4266L43.3204 37.0506C43.1711 37.3079 42.9743 37.4803 42.7299 37.5676C42.4853 37.6549 42.2176 37.6653 41.9269 37.5986L40.0249 37.2106C39.6409 37.6026 39.1633 37.9529 38.5919 38.2616C38.0206 38.5703 37.4634 38.8039 36.9204 38.9626L36.5824 41.0646C36.5071 41.4319 36.3379 41.7294 36.0749 41.9571C35.8119 42.1848 35.5091 42.2986 35.1664 42.2986H34.7264C34.3838 42.2986 34.0804 42.1846 33.8164 41.9566C33.5524 41.7289 33.3868 41.4356 33.3194 41.0766ZM34.9509 36.0451C36.1256 36.0451 37.0739 35.6844 37.7959 34.9631C38.5183 34.2418 38.8794 33.2911 38.8794 32.1111C38.8794 30.9311 38.5183 29.9803 37.7959 29.2586C37.0736 28.5373 36.1248 28.1766 34.9494 28.1766C33.7744 28.1766 32.8243 28.5378 32.0989 29.2601C31.3736 29.9821 31.0109 30.9304 31.0109 32.1051C31.0109 33.2891 31.3739 34.2418 32.0999 34.9631C32.8259 35.6844 33.7763 36.0451 34.9509 36.0451ZM19.9974 20.1876C21.2671 20.1876 22.3171 19.7733 23.1474 18.9446C23.9774 18.1156 24.3924 17.0659 24.3924 15.7956C24.3924 14.5219 23.9781 13.4714 23.1494 12.6441C22.3211 11.8168 21.2721 11.4031 20.0024 11.4031C18.7328 11.4031 17.6828 11.8169 16.8524 12.6446C16.0224 13.4726 15.6074 14.5209 15.6074 15.7896C15.6074 17.0619 16.0218 18.1129 16.8504 18.9426C17.6788 19.7726 18.7278 20.1876 19.9974 20.1876Z" fill="#0047AB"/>
</svg>
