<svg width="48" height="48" viewBox="0 0 48 48" fill="none" xmlns="http://www.w3.org/2000/svg">
<path d="M32.6502 12.6535C33.1058 12.6535 33.5037 12.4835 33.8437 12.1435C34.1837 11.8035 34.3537 11.4056 34.3537 10.95C34.3537 10.4943 34.1837 10.0965 33.8437 9.75646C33.5037 9.41646 33.1058 9.24646 32.6502 9.24646C32.1945 9.24646 31.7967 9.41646 31.4567 9.75646C31.1167 10.0965 30.9467 10.4943 30.9467 10.95C30.9467 11.4056 31.1167 11.8035 31.4567 12.1435C31.7967 12.4835 32.1945 12.6535 32.6502 12.6535ZM24.0002 12.6535C24.4558 12.6535 24.8537 12.4835 25.1937 12.1435C25.5337 11.8035 25.7037 11.4056 25.7037 10.95C25.7037 10.4943 25.5337 10.0965 25.1937 9.75646C24.8537 9.41646 24.4558 9.24646 24.0002 9.24646C23.5445 9.24646 23.1467 9.41646 22.8067 9.75646C22.4667 10.0965 22.2967 10.4943 22.2967 10.95C22.2967 11.4056 22.4667 11.8035 22.8067 12.1435C23.1467 12.4835 23.5445 12.6535 24.0002 12.6535ZM15.3502 12.6535C15.8058 12.6535 16.2037 12.4835 16.5437 12.1435C16.8837 11.8035 17.0537 11.4056 17.0537 10.95C17.0537 10.4943 16.8837 10.0965 16.5437 9.75646C16.2037 9.41646 15.8058 9.24646 15.3502 9.24646C14.8945 9.24646 14.4967 9.41646 14.1567 9.75646C13.8167 10.0965 13.6467 10.4943 13.6467 10.95C13.6467 11.4056 13.8167 11.8035 14.1567 12.1435C14.4967 12.4835 14.8945 12.6535 15.3502 12.6535ZM9.10767 16.95V38.8925H38.8927V16.95H9.10767ZM20.8397 24.45H27.2162C27.6592 24.45 28.0308 24.2986 28.3312 23.996C28.6315 23.6933 28.7817 23.3181 28.7817 22.8705C28.7817 22.4265 28.6312 22.0568 28.3302 21.7615C28.0288 21.4661 27.6557 21.3185 27.2107 21.3185H20.8342C20.3912 21.3185 20.0195 21.4686 19.7192 21.769C19.4188 22.0696 19.2687 22.442 19.2687 22.886C19.2687 23.33 19.4192 23.7016 19.7202 24.001C20.0215 24.3003 20.3947 24.45 20.8397 24.45ZM9.10767 42.299C8.18767 42.299 7.39001 41.9611 6.71467 41.2855C6.03901 40.6101 5.70117 39.8125 5.70117 38.8925V9.10746C5.70117 8.18413 6.03901 7.38363 6.71467 6.70596C7.39001 6.02796 8.18767 5.68896 9.10767 5.68896H38.8927C39.816 5.68896 40.6165 6.02796 41.2942 6.70596C41.9722 7.38363 42.3112 8.18413 42.3112 9.10746V38.8925C42.3112 39.8125 41.9722 40.6101 41.2942 41.2855C40.6165 41.9611 39.816 42.299 38.8927 42.299H9.10767Z" fill="#0047AB"/>
</svg>
