<svg width="48" height="48" viewBox="0 0 48 48" fill="none" xmlns="http://www.w3.org/2000/svg">
<path d="M19.2035 20.1335L22.8685 18.301C23.2285 18.1183 23.6023 18.027 23.99 18.027C24.3777 18.027 24.7582 18.1183 25.1315 18.301L28.7965 20.1335V9.10746H19.2035V20.1335ZM15.9165 34.251C15.3018 34.251 14.7868 34.0435 14.3715 33.6285C13.9565 33.2131 13.749 32.7001 13.749 32.0895C13.749 31.4791 13.9565 30.9663 14.3715 30.551C14.7868 30.136 15.3018 29.9285 15.9165 29.9285H21.8445C22.4502 29.9285 22.9608 30.1363 23.3765 30.552C23.7922 30.9676 24 31.4781 24 32.0835C24 32.6981 23.7922 33.2131 23.3765 33.6285C22.9608 34.0435 22.4502 34.251 21.8445 34.251H15.9165ZM9.10749 42.299C8.18749 42.299 7.38982 41.9611 6.71449 41.2855C6.03882 40.6101 5.70099 39.8125 5.70099 38.8925V9.10746C5.70099 8.18413 6.03882 7.38363 6.71449 6.70596C7.38982 6.02796 8.18749 5.68896 9.10749 5.68896H38.8925C39.8158 5.68896 40.6163 6.02796 41.294 6.70596C41.972 7.38363 42.311 8.18413 42.311 9.10746V38.8925C42.311 39.8125 41.972 40.6101 41.294 41.2855C40.6163 41.9611 39.8158 42.299 38.8925 42.299H9.10749ZM9.10749 38.8925H38.8925V9.10746H32.1195V22.725C32.1195 23.376 31.8543 23.8683 31.324 24.202C30.7937 24.5353 30.2425 24.5528 29.6705 24.2545L24 21.45L18.3295 24.2545C17.7575 24.5528 17.2063 24.5353 16.676 24.202C16.1457 23.8683 15.8805 23.376 15.8805 22.725V9.10746H9.10749V38.8925Z" fill="#0047AB"/>
</svg>
