<svg width="48" height="48" viewBox="0 0 48 48" fill="none" xmlns="http://www.w3.org/2000/svg">
<path d="M24.0017 44.2994C21.2197 44.2994 18.594 43.7684 16.1247 42.7064C13.6553 41.6444 11.4985 40.1911 9.65417 38.3464C7.80951 36.5021 6.35617 34.3458 5.29417 31.8774C4.23217 29.4095 3.70117 26.7843 3.70117 24.0019C3.70117 21.1866 4.23217 18.5443 5.29417 16.0749C6.35617 13.6056 7.80884 11.4568 9.65217 9.62845C11.4955 7.80012 13.6515 6.35328 16.1202 5.28795C18.5888 4.22228 21.2147 3.68945 23.9977 3.68945C26.8137 3.68945 29.4568 4.22195 31.9272 5.28695C34.3972 6.35195 36.5462 7.79795 38.3742 9.62495C40.2018 11.4523 41.6482 13.6008 42.7132 16.0705C43.7785 18.5398 44.3112 21.1831 44.3112 24.0004C44.3112 26.7838 43.7783 29.4099 42.7127 31.8789C41.6473 34.3483 40.2005 36.5046 38.3722 38.3479C36.5438 40.1916 34.3955 41.6444 31.9272 42.7064C29.4592 43.7684 26.8173 44.2994 24.0017 44.2994ZM24.0002 40.8929C28.7015 40.8929 32.6923 39.2471 35.9727 35.9554C39.2527 32.6634 40.8927 28.6784 40.8927 24.0004C40.8927 19.2991 39.2527 15.3083 35.9727 12.028C32.6923 8.74795 28.6995 7.10795 23.9942 7.10795C19.3222 7.10795 15.3397 8.74795 12.0467 12.028C8.75401 15.3083 7.10767 19.3011 7.10767 24.0064C7.10767 28.6784 8.75351 32.6609 12.0452 35.9539C15.3372 39.2466 19.3222 40.8929 24.0002 40.8929ZM23.9502 38.3504C24.3345 38.3504 24.6675 38.2108 24.9492 37.9314C25.2308 37.6521 25.3717 37.3091 25.3717 36.9024V35.7984C27.364 35.5731 28.9372 34.9021 30.0912 33.7854C31.2448 32.6688 31.8217 31.2239 31.8217 29.4509C31.8217 27.6996 31.3428 26.2998 30.3852 25.2514C29.4272 24.2031 27.7717 23.2956 25.4187 22.5289C23.3303 21.8289 21.9005 21.1391 21.1292 20.4594C20.3575 19.7801 19.9717 18.8961 19.9717 17.8075C19.9717 16.8095 20.3368 16.0291 21.0672 15.4665C21.7972 14.9035 22.7922 14.622 24.0522 14.622C24.8522 14.622 25.5668 14.7701 26.1962 15.0665C26.8255 15.3625 27.3755 15.8143 27.8462 16.4219C28.0995 16.7126 28.4028 16.9019 28.7562 16.9899C29.1095 17.0779 29.4442 17.0308 29.7602 16.8485C30.1425 16.6578 30.388 16.3731 30.4967 15.9945C30.6057 15.6158 30.5395 15.2644 30.2982 14.9404C29.7235 14.1404 29.0358 13.5113 28.2352 13.0529C27.4342 12.5946 26.513 12.3071 25.4717 12.1904V11.0985C25.4717 10.6838 25.3288 10.3471 25.0432 10.0885C24.7575 9.82978 24.4265 9.70045 24.0502 9.70045C23.6738 9.70045 23.3345 9.82978 23.0322 10.0885C22.7298 10.3471 22.5787 10.6838 22.5787 11.0985V12.1904C20.8547 12.4398 19.507 13.0708 18.5357 14.0834C17.5643 15.0958 17.0787 16.3499 17.0787 17.8459C17.0787 19.5063 17.5155 20.8278 18.3892 21.8104C19.2632 22.7928 20.886 23.7293 23.2577 24.6199C25.5447 25.4879 27.0615 26.2474 27.8082 26.8984C28.5552 27.5491 28.9287 28.3998 28.9287 29.4504C28.9287 30.5268 28.4925 31.4339 27.6202 32.1719C26.7482 32.9099 25.6582 33.2789 24.3502 33.2789C23.2612 33.2789 22.2642 33.0181 21.3592 32.4965C20.4545 31.9751 19.7548 31.2391 19.2602 30.2884C19.0775 29.9978 18.8365 29.7734 18.5372 29.6154C18.2378 29.4578 17.9262 29.4328 17.6022 29.5404C17.1452 29.7151 16.8437 29.9894 16.6977 30.3634C16.5517 30.7374 16.6032 31.1158 16.8522 31.4984C17.5268 32.6141 18.3245 33.5136 19.2452 34.1969C20.1658 34.8803 21.2437 35.3808 22.4787 35.6984V36.9404C22.4787 37.3311 22.6278 37.6638 22.9262 37.9384C23.2245 38.2131 23.5658 38.3504 23.9502 38.3504Z" fill="#0047AB"/>
</svg>
