<svg width="48" height="48" viewBox="0 0 48 48" fill="none" xmlns="http://www.w3.org/2000/svg">
<path d="M27.1316 26.7252C25.4649 26.7252 24.0483 26.1419 22.8816 24.9752C21.7149 23.8085 21.1316 22.3919 21.1316 20.7252C21.1316 19.0585 21.7149 17.6419 22.8816 16.4752C24.0483 15.3085 25.4649 14.7252 27.1316 14.7252C28.7983 14.7252 30.2149 15.3085 31.3816 16.4752C32.5483 17.6419 33.1316 19.0585 33.1316 20.7252C33.1316 22.3919 32.5483 23.8085 31.3816 24.9752C30.2149 26.1419 28.7983 26.7252 27.1316 26.7252ZM11.4186 34.0002C10.4743 34.0002 9.66843 33.6665 9.0011 32.9992C8.33376 32.3319 8.0001 31.526 8.0001 30.5817V10.8687C8.0001 9.9287 8.33376 9.12386 9.0011 8.4542C9.66843 7.78486 10.4743 7.4502 11.4186 7.4502H42.8686C43.8053 7.4502 44.6073 7.78486 45.2746 8.4542C45.9416 9.12386 46.2751 9.9287 46.2751 10.8687V30.5817C46.2751 31.526 45.9416 32.3319 45.2746 32.9992C44.6073 33.6665 43.8053 34.0002 42.8686 34.0002H11.4186ZM16.2751 30.7252H38.0001C38.0001 29.3252 38.4834 28.1419 39.4501 27.1752C40.4168 26.2085 41.6001 25.7252 43.0001 25.7252V15.7252C41.6001 15.7252 40.4168 15.2399 39.4501 14.2692C38.4834 13.2985 38.0001 12.1172 38.0001 10.7252H16.2751C16.2751 12.1172 15.7918 13.2985 14.8251 14.2692C13.8584 15.2399 12.6751 15.7252 11.2751 15.7252V25.7252C12.6751 25.7252 13.8584 26.2085 14.8251 27.1752C15.7918 28.1419 16.2751 29.3252 16.2751 30.7252ZM38.2966 40.2752H5.1316C4.19493 40.2752 3.39293 39.9417 2.7256 39.2747C2.0586 38.6074 1.7251 37.8054 1.7251 36.8687V15.7037C1.7251 15.2227 1.8896 14.8185 2.2186 14.4912C2.5476 14.1639 2.95376 14.0002 3.4371 14.0002C3.92043 14.0002 4.3236 14.1639 4.6466 14.4912C4.96993 14.8185 5.1316 15.2227 5.1316 15.7037V36.8687H38.2966C38.7776 36.8687 39.1818 37.0332 39.5091 37.3622C39.8364 37.6912 40.0001 38.0974 40.0001 38.5807C40.0001 39.064 39.8364 39.4672 39.5091 39.7902C39.1818 40.1135 38.7776 40.2752 38.2966 40.2752Z" fill="#0047AB"/>
</svg>
