<svg width="48" height="48" viewBox="0 0 48 48" fill="none" xmlns="http://www.w3.org/2000/svg">
<path d="M38.3829 21.8334C37.0999 21.8334 35.7339 21.473 34.2849 20.7524C32.8356 20.0317 31.4821 19.0292 30.2244 17.7449C28.9748 16.4602 27.9878 15.0947 27.2634 13.6484C26.5391 12.202 26.1769 10.8619 26.1769 9.62786C26.1769 9.03153 26.2643 8.48686 26.4389 7.99386C26.6136 7.50086 26.8744 7.07769 27.2214 6.72436C28.0904 5.83903 29.8379 5.07136 32.4639 4.42136C35.0903 3.77136 37.5819 3.48453 39.9389 3.56086C40.7869 3.58619 41.5219 3.67969 42.1439 3.84136C42.7659 4.00303 43.2181 4.22503 43.5004 4.50736C43.7588 4.76536 43.9601 5.17186 44.1044 5.72686C44.2488 6.28186 44.3473 6.96203 44.3999 7.76736C44.5266 10.1324 44.2753 12.6704 43.6459 15.3814C43.0166 18.092 42.2641 19.8852 41.3884 20.7609C41.0444 21.1015 40.6054 21.3655 40.0714 21.5529C39.5371 21.7399 38.9743 21.8334 38.3829 21.8334ZM40.4009 14.4324C40.6596 13.3977 40.8549 12.2582 40.9869 11.0139C41.1189 9.76919 41.2029 8.39053 41.2389 6.87786C39.6789 6.81486 38.2501 6.84803 36.9524 6.97736C35.6551 7.1067 34.4431 7.33403 33.3164 7.65936C34.0591 8.11036 34.7681 8.58886 35.4434 9.09486C36.1188 9.60119 36.7531 10.1075 37.3464 10.6139C38.0591 11.2645 38.6669 11.9049 39.1699 12.5349C39.6733 13.1652 40.0836 13.7977 40.4009 14.4324ZM38.8609 18.5609C38.6876 17.5352 38.3173 16.5837 37.7499 15.7064C37.1826 14.8287 36.3148 13.8685 35.1464 12.8259C33.9704 11.7832 32.9314 10.9699 32.0294 10.3859C31.1271 9.80153 30.2966 9.41019 29.5379 9.21186C29.6286 10.2625 29.9556 11.3659 30.5189 12.5219C31.0823 13.6782 31.7559 14.6484 32.5399 15.4324C33.5083 16.4084 34.4911 17.1467 35.4884 17.6474C36.4861 18.1484 37.6103 18.4529 38.8609 18.5609ZM33.3229 27.6564H14.7574C14.2908 27.6564 13.8446 27.563 13.4189 27.3764C12.9933 27.1897 12.6231 26.9432 12.3084 26.6369L4.23042 18.5704C3.89842 18.2384 3.73242 17.8505 3.73242 17.4069C3.73242 16.9632 3.89842 16.5714 4.23042 16.2314C4.56242 15.8994 4.95226 15.7334 5.39992 15.7334C5.84759 15.7334 6.23742 15.8994 6.56942 16.2314L14.6769 24.3334H33.2424C33.7091 24.3334 34.1553 24.4287 34.5809 24.6194C35.0066 24.81 35.3768 25.0585 35.6914 25.3649L43.7694 33.4314C44.1014 33.7634 44.2674 34.1512 44.2674 34.5949C44.2674 35.0385 44.1014 35.4304 43.7694 35.7704C43.4374 36.1024 43.0476 36.2684 42.5999 36.2684C42.1523 36.2684 41.7624 36.1024 41.4304 35.7704L33.3229 27.6564ZM18.0954 43.7279C17.6068 43.7279 17.1988 43.5642 16.8714 43.2369C16.5441 42.9095 16.3804 42.5015 16.3804 42.0129V35.8474C16.3804 34.911 16.7131 34.1092 17.3784 33.4419C18.0438 32.7745 18.8506 32.4409 19.7989 32.4409H28.2009C29.1493 32.4409 29.9561 32.7745 30.6214 33.4419C31.2868 34.1092 31.6194 34.911 31.6194 35.8474V42.0129C31.6194 42.5015 31.4558 42.9095 31.1284 43.2369C30.8011 43.5642 30.3971 43.7279 29.9164 43.7279H18.0954ZM19.7034 40.4054H28.2964V35.7639H19.7034V40.4054Z" fill="#0047AB"/>
</svg>
