<svg width="48" height="48" viewBox="0 0 48 48" fill="none" xmlns="http://www.w3.org/2000/svg">
<path d="M23.988 46.2746C20.2546 46.2746 16.6546 45.1866 13.188 43.0106C9.7213 40.8343 6.97597 38.3454 4.95197 35.5441V40.6431C4.95197 41.1084 4.79646 41.4966 4.48546 41.8076C4.17413 42.1189 3.7858 42.2746 3.32047 42.2746C2.85547 42.2746 2.4673 42.1189 2.15596 41.8076C1.84463 41.4966 1.68896 41.1084 1.68896 40.6431V31.5711C1.68896 31.0821 1.85063 30.6761 2.17396 30.3531C2.49696 30.0298 2.90313 29.8681 3.39246 29.8681H12.464C12.9293 29.8681 13.3176 30.0238 13.629 30.3351C13.94 30.6461 14.0955 31.0343 14.0955 31.4996C14.0955 31.9649 13.94 32.3531 13.629 32.6641C13.3176 32.9754 12.9293 33.1311 12.464 33.1311H7.24547C8.94547 35.6578 11.3606 37.9343 14.491 39.9606C17.621 41.9866 20.7866 42.9996 23.988 42.9996C28.9403 42.9996 33.2248 41.3401 36.8415 38.0211C40.4581 34.7024 42.4903 30.6051 42.938 25.7291C42.9713 25.2638 43.1456 24.8711 43.461 24.5511C43.776 24.2311 44.1661 24.0711 44.6315 24.0711C45.0635 24.0711 45.4433 24.2188 45.771 24.5141C46.099 24.8094 46.2463 25.1731 46.213 25.6051C45.989 28.5038 45.2568 31.2109 44.0165 33.7266C42.7758 36.2426 41.1581 38.4296 39.1635 40.2876C37.1688 42.1456 34.87 43.6079 32.267 44.6746C29.6636 45.7413 26.904 46.2746 23.988 46.2746ZM24 4.99961C19.0476 4.99961 14.7631 6.65911 11.1465 9.97811C7.5298 13.2968 5.50163 17.3941 5.06196 22.2701C5.02063 22.7354 4.8423 23.1281 4.52696 23.4481C4.21197 23.7681 3.8218 23.9281 3.35646 23.9281C2.91646 23.9281 2.53663 23.7724 2.21696 23.4611C1.89696 23.1498 1.75363 22.7743 1.78696 22.3346C2.00297 19.4599 2.73113 16.7686 3.97146 14.2606C5.21213 11.7526 6.8258 9.57161 8.81247 7.71761C10.7991 5.86361 13.0961 4.40128 15.7035 3.33061C18.3105 2.25994 21.076 1.72461 24 1.72461C27.7333 1.72461 31.3373 2.81461 34.812 4.99461C38.2866 7.17461 41.028 9.66144 43.036 12.4551V7.35611C43.036 6.88278 43.1915 6.49261 43.5025 6.18561C43.8138 5.87827 44.2061 5.72461 44.6795 5.72461C45.1525 5.72461 45.5426 5.87827 45.85 6.18561C46.1573 6.49261 46.311 6.88278 46.311 7.35611V16.4281C46.311 16.9171 46.1493 17.3231 45.826 17.6461C45.503 17.9694 45.0968 18.1311 44.6075 18.1311H35.536C35.0706 18.1311 34.6823 17.9754 34.371 17.6641C34.06 17.3531 33.9045 16.9649 33.9045 16.4996C33.9045 16.0343 34.06 15.6461 34.371 15.3351C34.6823 15.0238 35.0706 14.8681 35.536 14.8681H40.7545C39.0305 12.3174 36.6058 10.0349 33.4805 8.02061C30.3551 6.00661 27.195 4.99961 24 4.99961ZM23.802 35.6996C24.3593 35.6996 24.8333 35.5043 25.224 35.1136C25.6146 34.7233 25.81 34.2534 25.81 33.7041C25.81 33.1468 25.6146 32.6768 25.224 32.2941C24.8333 31.9114 24.3593 31.7201 23.802 31.7201C23.253 31.7201 22.7851 31.9134 22.3985 32.3001C22.0118 32.6868 21.8185 33.1548 21.8185 33.7041C21.8185 34.2611 22.0118 34.7329 22.3985 35.1196C22.7851 35.5063 23.253 35.6996 23.802 35.6996ZM27.36 23.5496C28.396 22.5053 29.1406 21.5503 29.594 20.6846C30.0473 19.8186 30.274 18.9029 30.274 17.9376C30.274 16.2043 29.678 14.8106 28.486 13.7566C27.294 12.7026 25.802 12.1756 24.01 12.1756C22.6193 12.1756 21.3723 12.4503 20.269 12.9996C19.1656 13.5489 18.2726 14.3649 17.59 15.4476C17.341 15.8299 17.2871 16.2268 17.4285 16.6381C17.5695 17.0494 17.8393 17.3384 18.238 17.5051C18.6286 17.6798 19.036 17.6861 19.46 17.5241C19.8836 17.3621 20.2448 17.1104 20.5435 16.7691C20.9941 16.2851 21.5095 15.9094 22.0895 15.6421C22.6698 15.3748 23.298 15.2411 23.974 15.2411C24.8846 15.2411 25.6535 15.4938 26.2805 15.9991C26.9071 16.5044 27.2205 17.1959 27.2205 18.0736C27.2205 18.7243 27.0291 19.3559 26.6465 19.9686C26.2641 20.5813 25.6795 21.2684 24.8925 22.0301C23.9178 22.9541 23.2368 23.7498 22.8495 24.4171C22.4621 25.0844 22.2185 25.8348 22.1185 26.6681C22.0518 27.1001 22.1765 27.4759 22.4925 27.7956C22.8085 28.1156 23.1783 28.2756 23.602 28.2756C24.034 28.2756 24.3933 28.1259 24.68 27.8266C24.9666 27.5276 25.1718 27.1661 25.2955 26.7421C25.4288 26.1738 25.6581 25.6456 25.9835 25.1576C26.3088 24.6696 26.7676 24.1336 27.36 23.5496Z" fill="#0047AB"/>
</svg>
