<svg width="48" height="48" viewBox="0 0 48 48" fill="none" xmlns="http://www.w3.org/2000/svg">
<path d="M9.10767 46.299C8.16267 46.299 7.35867 45.9675 6.69567 45.3045C6.03267 44.6415 5.70117 43.8375 5.70117 42.8925V31.44C5.70117 28.7563 6.64334 26.4661 8.52767 24.5695C10.412 22.6731 12.6963 21.725 15.3807 21.725H18.1772V5.09546C18.1772 4.1588 18.5108 3.35696 19.1782 2.68996C19.8452 2.02263 20.647 1.68896 21.5837 1.68896H26.4287C27.3653 1.68896 28.1672 2.02263 28.8342 2.68996C29.5015 3.35696 29.8352 4.1588 29.8352 5.09546V21.725H32.6197C35.304 21.725 37.5903 22.6731 39.4787 24.5695C41.367 26.4661 42.3112 28.7563 42.3112 31.44V42.8925C42.3112 43.8375 41.9785 44.6415 41.3132 45.3045C40.6478 45.9675 39.841 46.299 38.8927 46.299H9.10767ZM9.10767 42.8925H13.9872V36.5835C13.9872 36.1028 14.1517 35.6988 14.4807 35.3715C14.8097 35.0441 15.2208 34.8805 15.7142 34.8805C16.1948 34.8805 16.595 35.0441 16.9147 35.3715C17.234 35.6988 17.3937 36.1028 17.3937 36.5835V42.8925H22.2967V36.5835C22.2967 36.1028 22.4598 35.6988 22.7862 35.3715C23.1122 35.0441 23.5163 34.8805 23.9987 34.8805C24.4807 34.8805 24.8853 35.0441 25.2127 35.3715C25.54 35.6988 25.7037 36.1028 25.7037 36.5835V42.8925H30.6067V36.5835C30.6067 36.1028 30.7705 35.6988 31.0982 35.3715C31.4262 35.0441 31.8323 34.8805 32.3167 34.8805C32.8013 34.8805 33.2072 35.0441 33.5342 35.3715C33.8615 35.6988 34.0252 36.1028 34.0252 36.5835V42.8925H38.8927V31.44C38.8927 29.691 38.2828 28.2043 37.0632 26.98C35.8432 25.7556 34.362 25.1435 32.6197 25.1435H15.3807C13.6383 25.1435 12.1572 25.7556 10.9372 26.98C9.71751 28.2043 9.10767 29.691 9.10767 31.44V42.8925ZM26.4167 21.725V5.10746H21.5957V21.725H26.4167Z" fill="#0047AB"/>
</svg>
