<svg width="48" height="48" viewBox="0 0 48 48" fill="none" xmlns="http://www.w3.org/2000/svg">
<path d="M19.174 16.8249L22.838 10.8584L19.852 5.88689C19.4363 5.22022 18.8495 4.88689 18.0915 4.88689C17.3335 4.88689 16.7545 5.22022 16.3545 5.88689L12.24 12.6769C11.975 13.0916 11.9088 13.5164 12.0415 13.9514C12.1738 14.3867 12.4473 14.7369 12.862 15.0019L16.849 17.4464C17.2633 17.6784 17.6881 17.7364 18.1235 17.6204C18.5585 17.5044 18.9086 17.2392 19.174 16.8249ZM37.9415 32.0954L34.339 26.0674C34.082 25.6527 34.0176 25.2176 34.146 24.7619C34.2746 24.3062 34.5463 23.9624 34.961 23.7304L38.998 21.3859C39.4123 21.1619 39.8475 21.0976 40.3035 21.1929C40.7591 21.2882 41.103 21.5431 41.335 21.9574L43.725 25.9619C44.0916 26.5446 44.2896 27.1899 44.319 27.8979C44.3483 28.6059 44.2003 29.2637 43.875 29.8714C43.5336 30.5541 43.034 31.0954 42.376 31.4954C41.718 31.8954 41.0016 32.0954 40.227 32.0954H37.9415ZM30.6285 44.8074L25.2055 39.3849C24.8655 39.0449 24.6955 38.6431 24.6955 38.1794C24.6955 37.7154 24.8655 37.3136 25.2055 36.9739L30.6285 31.5509C30.8935 31.2859 31.2063 31.2216 31.567 31.3579C31.9273 31.4946 32.1075 31.7496 32.1075 32.1229V34.1194H41.739L38.8035 40.0034C38.4288 40.6857 37.9208 41.2269 37.2795 41.6269C36.6381 42.0269 35.9301 42.2269 35.1555 42.2269H32.1075V44.2359C32.1075 44.6089 31.9273 44.8637 31.567 45.0004C31.2063 45.1371 30.8935 45.0727 30.6285 44.8074ZM12.4945 42.2269C11.8198 42.2269 11.2035 42.0519 10.6455 41.7019C10.0875 41.3519 9.67514 40.8857 9.40847 40.3034C9.13381 39.7621 9.00481 39.1977 9.02147 38.6104C9.03814 38.0231 9.20047 37.4714 9.50847 36.9554L11.2325 34.1194H18.237C18.726 34.1194 19.1341 34.2831 19.4615 34.6104C19.7885 34.9374 19.952 35.3456 19.952 35.8349V40.5239C19.952 41.0129 19.7885 41.4191 19.4615 41.7424C19.1341 42.0654 18.726 42.2269 18.237 42.2269H12.4945ZM7.47297 36.4554L4.18697 29.8714C3.87097 29.2637 3.72331 28.6142 3.74397 27.9229C3.76464 27.2316 3.96231 26.5779 4.33697 25.9619L5.14897 24.5879L3.46647 23.5834C3.15981 23.3931 3.02514 23.1029 3.06247 22.7129C3.09981 22.3232 3.30897 22.0871 3.68997 22.0044L11.1535 20.1259C11.6091 20.0099 12.0338 20.0742 12.4275 20.3189C12.8215 20.5636 13.0765 20.9137 13.1925 21.3694L15.0705 28.8824C15.1531 29.2557 15.0433 29.5479 14.741 29.7589C14.4383 29.9702 14.1296 29.9806 13.815 29.7899L12.0945 28.7479L7.47297 36.4554ZM33.202 18.7184L25.739 16.8399C25.366 16.7656 25.1505 16.5314 25.0925 16.1374C25.0345 15.7434 25.1753 15.4512 25.515 15.2609L27.248 14.2564L20.902 3.71289H28.06C28.7676 3.71289 29.4318 3.89189 30.0525 4.24989C30.6731 4.60789 31.1708 5.08689 31.5455 5.68689L34.1815 10.0964L35.876 9.05439C36.1826 8.85572 36.4871 8.87239 36.7895 9.10439C37.0921 9.33606 37.2061 9.63856 37.1315 10.0119L35.2415 17.4749C35.1175 17.9306 34.8605 18.2807 34.4705 18.5254C34.0808 18.7701 33.658 18.8344 33.202 18.7184Z" fill="#E6EDF7"/>
</svg>
