<svg width="48" height="48" viewBox="0 0 48 48" fill="none" xmlns="http://www.w3.org/2000/svg">
<path d="M23.9999 42.1194C23.3839 42.1194 22.7929 42.007 22.2269 41.7824C21.6613 41.5577 21.1566 41.2234 20.7129 40.7794L8.40744 28.4629C8.11678 28.1469 7.97978 27.7564 7.99644 27.2914C8.01311 26.826 8.18344 26.448 8.50744 26.1574C8.83144 25.8667 9.21361 25.7365 9.65394 25.7669C10.0943 25.7972 10.4679 25.9647 10.7749 26.2694L23.0099 38.4544C23.1686 38.605 23.3231 38.7117 23.4734 38.7744C23.6238 38.837 23.7993 38.8684 23.9999 38.8684C24.2006 38.8684 24.3761 38.837 24.5264 38.7744C24.6768 38.7117 24.8313 38.605 24.9899 38.4544L38.3164 25.0664C39.1671 24.2154 39.8071 23.2229 40.2364 22.0889C40.6658 20.9549 40.8804 19.7584 40.8804 18.4994C40.8884 15.949 40.0684 13.7442 38.4204 11.8849C36.7728 10.0252 34.7191 9.09537 32.2594 9.09537C31.1024 9.09537 29.9923 9.33604 28.9289 9.81737C27.8653 10.299 26.9334 10.971 26.1334 11.8334L24.7954 13.2834C24.6794 13.3914 24.5636 13.4827 24.4479 13.5574C24.3319 13.632 24.1826 13.6694 23.9999 13.6694C23.8173 13.6694 23.6566 13.6337 23.5179 13.5624C23.3796 13.491 23.2624 13.398 23.1664 13.2834L21.8164 11.8334C21.0151 10.981 20.0811 10.3155 19.0144 9.83687C17.9474 9.35854 16.8426 9.11937 15.6999 9.11937C13.3906 9.11937 11.4441 9.94387 9.86044 11.5929C8.27711 13.2419 7.37211 15.2309 7.14544 17.5599C7.08211 17.9905 6.87478 18.3557 6.52344 18.6554C6.17211 18.9554 5.78161 19.072 5.35194 19.0054C4.92028 18.9387 4.56511 18.734 4.28644 18.3914C4.00778 18.0484 3.90144 17.6565 3.96744 17.2159C4.25711 14.1392 5.48328 11.4807 7.64594 9.24037C9.80861 7.00037 12.4933 5.88037 15.6999 5.88037C17.2839 5.88037 18.7851 6.19304 20.2034 6.81837C21.6221 7.4437 22.8884 8.31504 24.0024 9.43237C25.0834 8.31504 26.3323 7.4437 27.7489 6.81837C29.1656 6.19304 30.6659 5.88037 32.2499 5.88037C35.6073 5.88037 38.4248 7.12171 40.7024 9.60437C42.9804 12.087 44.1194 15.0525 44.1194 18.5009C44.1194 20.1575 43.8301 21.7419 43.2514 23.2539C42.6728 24.7655 41.8168 26.1087 40.6834 27.2834L27.2334 40.7834C26.7921 41.2247 26.2969 41.5577 25.7479 41.7824C25.1986 42.007 24.6159 42.1194 23.9999 42.1194ZM23.8119 23.5599H5.46394C5.04061 23.5599 4.68511 23.4152 4.39744 23.1259C4.11011 22.8365 3.96644 22.4782 3.96644 22.0509C3.96644 21.6235 4.11011 21.2682 4.39744 20.9849C4.68511 20.7015 5.04061 20.5599 5.46394 20.5599H31.7859C32.4943 20.5599 33.0879 20.321 33.5669 19.8434C34.0463 19.366 34.2859 18.7744 34.2859 18.0684C34.2859 17.3627 34.0463 16.7682 33.5669 16.2849C33.0879 15.8015 32.4943 15.5599 31.7859 15.5599C31.5409 15.5599 31.3046 15.5849 31.0769 15.6349C30.8496 15.6849 30.6359 15.7765 30.4359 15.9099C30.1026 16.1765 29.7328 16.2774 29.3264 16.2124C28.9201 16.1477 28.5899 15.9469 28.3359 15.6099C28.0693 15.2895 27.9693 14.926 28.0359 14.5194C28.1026 14.113 28.3026 13.7765 28.6359 13.5099C29.1026 13.2099 29.6009 12.9765 30.1309 12.8099C30.6609 12.6432 31.2126 12.5599 31.7859 12.5599C33.3136 12.5599 34.6121 13.095 35.6814 14.1654C36.7511 15.236 37.2859 16.536 37.2859 18.0654C37.2859 19.595 36.7511 20.8932 35.6814 21.9599C34.6121 23.0265 33.3136 23.5599 31.7859 23.5599H28.7099C28.9099 23.9342 29.0599 24.3272 29.1599 24.7389C29.2599 25.1505 29.3099 25.5909 29.3099 26.0599C29.3099 27.5875 28.7751 28.886 27.7054 29.9554C26.6361 31.025 25.3356 31.5599 23.8039 31.5599C23.2296 31.5599 22.6766 31.4765 22.1449 31.3099C21.6136 31.1432 21.1186 30.9099 20.6599 30.6099C20.3266 30.3509 20.1266 30.0189 20.0599 29.6139C19.9933 29.2089 20.0918 28.8417 20.3554 28.5124C20.6044 28.1734 20.9341 27.9735 21.3444 27.9129C21.7548 27.8519 22.1266 27.9525 22.4599 28.2149C22.6599 28.3465 22.8736 28.4369 23.1009 28.4859C23.3286 28.5352 23.5649 28.5599 23.8099 28.5599C24.5183 28.5599 25.1119 28.321 25.5909 27.8434C26.0703 27.366 26.3099 26.7744 26.3099 26.0684C26.3099 25.3627 26.0703 24.7682 25.5909 24.2849C25.1119 23.8015 24.5189 23.5599 23.8119 23.5599Z" fill="#0047AB"/>
</svg>
