<svg width="48" height="48" viewBox="0 0 48 48" fill="none" xmlns="http://www.w3.org/2000/svg">
<path d="M33.0414 35.4545L26.6824 41.801C26.3798 42.1076 25.9993 42.2673 25.5409 42.28C25.0826 42.2926 24.6834 42.131 24.3434 41.795C24.0034 41.4513 23.8334 41.0351 23.8334 40.5465C23.8334 40.0578 23.9994 39.651 24.3314 39.326L30.6164 33.0415L24.2814 26.6945C23.9414 26.3585 23.7818 25.9676 23.8024 25.522C23.8231 25.0763 23.9994 24.6835 24.3314 24.3435C24.6694 24.0035 25.0711 23.8251 25.5364 23.8085C26.0021 23.7918 26.4008 23.9495 26.7324 24.2815L33.0414 30.6285L39.3879 24.2815C39.7199 23.9495 40.1201 23.7918 40.5884 23.8085C41.0571 23.8251 41.4573 24.0015 41.7889 24.3375C42.1289 24.6735 42.2989 25.0653 42.2989 25.513C42.2989 25.961 42.1289 26.3548 41.7889 26.6945L35.4544 33.0415L41.7889 39.388C42.1289 39.728 42.2989 40.1301 42.2989 40.5945C42.2989 41.0591 42.1289 41.4593 41.7889 41.795C41.4493 42.131 41.0471 42.2906 40.5824 42.274C40.1181 42.2573 39.7199 42.079 39.3879 41.739L33.0414 35.4545ZM7.39093 9.10746C6.91059 9.10746 6.50893 8.94146 6.18593 8.60946C5.86259 8.27746 5.70093 7.8713 5.70093 7.39096C5.70093 6.91063 5.86626 6.50696 6.19693 6.17996C6.52726 5.85263 6.93143 5.68896 7.40943 5.68896C7.88709 5.68896 8.28959 5.8558 8.61693 6.18946C8.94393 6.5228 9.10743 6.93063 9.10743 7.41296C9.10743 7.89196 8.94143 8.29413 8.60943 8.61946C8.27743 8.9448 7.87126 9.10746 7.39093 9.10746ZM15.6934 9.10746C15.2144 9.10746 14.8123 8.94146 14.4869 8.60946C14.1616 8.27746 13.9989 7.8713 13.9989 7.39096C13.9989 6.91063 14.1649 6.50696 14.4969 6.17996C14.8289 5.85263 15.2351 5.68896 15.7154 5.68896C16.1958 5.68896 16.5994 5.8558 16.9264 6.18946C17.2538 6.5228 17.4174 6.93063 17.4174 7.41296C17.4174 7.89196 17.2506 8.29413 16.9169 8.61946C16.5836 8.9448 16.1758 9.10746 15.6934 9.10746ZM23.9909 9.10746C23.5079 9.10746 23.1048 8.94146 22.7814 8.60946C22.4581 8.27746 22.2964 7.8713 22.2964 7.39096C22.2964 6.91063 22.4611 6.50696 22.7904 6.17996C23.1194 5.85263 23.5256 5.68896 24.0089 5.68896C24.4919 5.68896 24.8951 5.8558 25.2184 6.18946C25.5418 6.5228 25.7034 6.93063 25.7034 7.41296C25.7034 7.89196 25.5388 8.29413 25.2094 8.61946C24.8804 8.9448 24.4743 9.10746 23.9909 9.10746ZM32.2964 9.10746C31.8161 9.10746 31.4124 8.94146 31.0854 8.60946C30.7581 8.27746 30.5944 7.8713 30.5944 7.39096C30.5944 6.91063 30.7613 6.50696 31.0949 6.17996C31.4283 5.85263 31.8361 5.68896 32.3184 5.68896C32.7974 5.68896 33.1996 5.8558 33.5249 6.18946C33.8503 6.5228 34.0129 6.93063 34.0129 7.41296C34.0129 7.89196 33.8469 8.29413 33.5149 8.61946C33.1826 8.9448 32.7764 9.10746 32.2964 9.10746ZM40.5869 9.10746C40.1079 9.10746 39.7058 8.94146 39.3804 8.60946C39.0551 8.27746 38.8924 7.8713 38.8924 7.39096C38.8924 6.91063 39.0584 6.50696 39.3904 6.17996C39.7224 5.85263 40.1286 5.68896 40.6089 5.68896C41.0893 5.68896 41.4929 5.8558 41.8199 6.18946C42.1473 6.5228 42.3109 6.93063 42.3109 7.41296C42.3109 7.89196 42.1441 8.29413 41.8104 8.61946C41.4771 8.9448 41.0693 9.10746 40.5869 9.10746ZM15.6934 42.299C15.2144 42.299 14.8123 42.1336 14.4869 41.803C14.1616 41.4726 13.9989 41.0685 13.9989 40.5905C13.9989 40.1128 14.1649 39.7103 14.4969 39.383C14.8289 39.056 15.2351 38.8925 15.7154 38.8925C16.1958 38.8925 16.5994 39.0585 16.9264 39.3905C17.2538 39.7225 17.4174 40.1286 17.4174 40.609C17.4174 41.0893 17.2506 41.491 16.9169 41.814C16.5836 42.1373 16.1758 42.299 15.6934 42.299ZM7.39193 17.4055C6.91393 17.4055 6.51259 17.2386 6.18793 16.905C5.86326 16.5716 5.70093 16.1638 5.70093 15.6815C5.70093 15.2025 5.86626 14.8003 6.19693 14.475C6.52726 14.1496 6.93143 13.987 7.40943 13.987C7.88709 13.987 8.31943 14.1695 8.70643 14.5345C9.09343 14.8991 9.28693 15.3211 9.28693 15.8005C9.28693 16.2798 9.0906 16.6671 8.69793 16.9625C8.30493 17.2578 7.86959 17.4055 7.39193 17.4055ZM7.39093 25.7035C6.91059 25.7035 6.50893 25.5388 6.18593 25.2095C5.86259 24.8805 5.70093 24.4743 5.70093 23.991C5.70093 23.508 5.86626 23.1048 6.19693 22.7815C6.52726 22.4581 6.93143 22.2965 7.40943 22.2965C7.88709 22.2965 8.28959 22.4611 8.61693 22.7905C8.94393 23.1195 9.10743 23.5256 9.10743 24.009C9.10743 24.492 8.94143 24.8951 8.60943 25.2185C8.27743 25.5418 7.87126 25.7035 7.39093 25.7035ZM7.39093 34.001C6.91059 34.001 6.50893 33.835 6.18593 33.503C5.86259 33.171 5.70093 32.7648 5.70093 32.2845C5.70093 31.8041 5.86626 31.4005 6.19693 31.0735C6.52726 30.7461 6.93143 30.5825 7.40943 30.5825C7.88709 30.5825 8.28959 30.7493 8.61693 31.083C8.94393 31.4163 9.10743 31.8241 9.10743 32.3065C9.10743 32.7855 8.94143 33.1876 8.60943 33.513C8.27743 33.8383 7.87126 34.001 7.39093 34.001ZM7.39093 42.299C6.91059 42.299 6.50893 42.1336 6.18593 41.803C5.86259 41.4726 5.70093 41.0685 5.70093 40.5905C5.70093 40.1128 5.86626 39.7103 6.19693 39.383C6.52726 39.056 6.93143 38.8925 7.40943 38.8925C7.88709 38.8925 8.28959 39.0585 8.61693 39.3905C8.94393 39.7225 9.10743 40.1286 9.10743 40.609C9.10743 41.0893 8.94143 41.491 8.60943 41.814C8.27743 42.1373 7.87126 42.299 7.39093 42.299ZM40.5869 17.4055C40.1079 17.4055 39.7058 17.2386 39.3804 16.905C39.0551 16.5716 38.8924 16.1638 38.8924 15.6815C38.8924 15.2025 39.0584 14.8003 39.3904 14.475C39.7224 14.1496 40.1286 13.987 40.6089 13.987C41.0893 13.987 41.4929 14.153 41.8199 14.485C42.1473 14.8173 42.3109 15.2235 42.3109 15.7035C42.3109 16.1838 42.1441 16.5875 41.8104 16.9145C41.4771 17.2418 41.0693 17.4055 40.5869 17.4055Z" fill="#0047AB"/>
</svg>
