<svg width="48" height="48" viewBox="0 0 48 48" fill="none" xmlns="http://www.w3.org/2000/svg">
<path d="M11.438 34.8585V13.1415C11.438 12.6522 11.5997 12.246 11.923 11.923C12.246 11.5997 12.6522 11.438 13.1415 11.438C13.6305 11.438 14.0367 11.5997 14.36 11.923C14.683 12.246 14.8445 12.6522 14.8445 13.1415V34.8585C14.8445 35.3478 14.683 35.754 14.36 36.077C14.0367 36.4003 13.6305 36.562 13.1415 36.562C12.6522 36.562 12.246 36.4003 11.923 36.077C11.5997 35.754 11.438 35.3478 11.438 34.8585ZM23.1435 34.9445L38.5335 25.4415C38.7988 25.2588 38.9998 25.0475 39.1365 24.8075C39.2732 24.5678 39.3415 24.2987 39.3415 24C39.3415 23.7013 39.2732 23.4322 39.1365 23.1925C38.9998 22.9525 38.7988 22.7412 38.5335 22.5585L23.1435 13.0555C23.0022 12.9808 22.8548 12.9145 22.7015 12.8565C22.5482 12.7985 22.401 12.7695 22.26 12.7695C21.804 12.7695 21.4042 12.9228 21.0605 13.2295C20.7165 13.5358 20.5445 13.9503 20.5445 14.473V33.527C20.5445 34.0497 20.7165 34.4642 21.0605 34.7705C21.4042 35.0772 21.804 35.2305 22.26 35.2305C22.401 35.2305 22.5482 35.2015 22.7015 35.1435C22.8548 35.0855 23.0022 35.0192 23.1435 34.9445ZM23.963 29.963V18.037L33.5705 24L23.963 29.963Z" fill="#0047AB"/>
</svg>
