<svg width="48" height="48" viewBox="0 0 48 48" fill="none" xmlns="http://www.w3.org/2000/svg">
<path d="M23.9935 38.2751C23.5295 38.2751 23.1426 38.1188 22.833 37.8061C22.5233 37.4934 22.3685 37.1059 22.3685 36.6436V11.3566C22.3685 10.8943 22.5255 10.5068 22.8395 10.1941C23.1531 9.88143 23.5421 9.7251 24.0065 9.7251C24.4705 9.7251 24.8573 9.88143 25.167 10.1941C25.4766 10.5068 25.6315 10.8943 25.6315 11.3566V36.6436C25.6315 37.1059 25.4745 37.4934 25.1605 37.8061C24.8468 38.1188 24.4578 38.2751 23.9935 38.2751ZM1.72498 31.9066V31.0536C1.72498 30.3179 1.92714 29.6396 2.33148 29.0186C2.73548 28.3976 3.28981 27.9288 3.99448 27.6121C4.83848 27.2614 5.71048 26.9884 6.61048 26.7931C7.51048 26.5978 8.45081 26.5001 9.43148 26.5001C10.4118 26.5001 11.3513 26.5978 12.25 26.7931C13.1486 26.9884 14.0233 27.2614 14.874 27.6121C15.5793 27.9288 16.132 28.3976 16.532 29.0186C16.9316 29.6396 17.1315 30.3179 17.1315 31.0536V31.9066H1.72498ZM30.8685 31.9066V31.0536C30.8685 30.3179 31.0683 29.6396 31.468 29.0186C31.868 28.3976 32.4246 27.9288 33.138 27.6121C33.982 27.2614 34.854 26.9884 35.754 26.7931C36.654 26.5978 37.5943 26.5001 38.575 26.5001C39.5553 26.5001 40.4948 26.5978 41.3935 26.7931C42.2921 26.9884 43.1628 27.2614 44.0055 27.6121C44.7101 27.9288 45.2645 28.3976 45.6685 29.0186C46.0728 29.6396 46.275 30.3179 46.275 31.0536V31.9066H30.8685ZM9.42598 23.8216C8.33831 23.8216 7.40798 23.4336 6.63498 22.6576C5.86164 21.8813 5.47498 20.9481 5.47498 19.8581C5.47498 18.7681 5.86231 17.8364 6.63698 17.0631C7.41164 16.2901 8.34281 15.9036 9.43048 15.9036C10.5181 15.9036 11.4485 16.2914 12.2215 17.0671C12.9948 17.8431 13.3815 18.7749 13.3815 19.8626C13.3815 20.9503 12.9941 21.8821 12.2195 22.6581C11.4448 23.4338 10.5136 23.8216 9.42598 23.8216ZM38.5695 23.8216C37.4818 23.8216 36.5515 23.4336 35.7785 22.6576C35.0051 21.8813 34.6185 20.9481 34.6185 19.8581C34.6185 18.7681 35.0058 17.8364 35.7805 17.0631C36.5551 16.2901 37.4863 15.9036 38.574 15.9036C39.6616 15.9036 40.592 16.2914 41.365 17.0671C42.1383 17.8431 42.525 18.7749 42.525 19.8626C42.525 20.9503 42.1376 21.8821 41.363 22.6581C40.5883 23.4338 39.6571 23.8216 38.5695 23.8216Z" fill="#0047AB"/>
</svg>
