<svg width="48" height="48" viewBox="0 0 48 48" fill="none" xmlns="http://www.w3.org/2000/svg">
<path d="M19.152 46.2994C18.316 46.2994 17.5852 45.9878 16.9595 45.3644C16.3335 44.7414 16.0205 44.0093 16.0205 43.1679V35.9654H14.8205C13.9728 35.9018 13.241 35.5403 12.625 34.8809C12.009 34.2216 11.701 33.4556 11.701 32.5829V5.09595C11.701 4.17595 12.0388 3.37828 12.7145 2.70295C13.3898 2.02728 14.1875 1.68945 15.1075 1.68945H32.8925C33.8158 1.68945 34.6163 2.02728 35.294 2.70295C35.972 3.37828 36.311 4.17595 36.311 5.09595V32.5829C36.311 33.4556 36.003 34.2216 35.387 34.8809C34.771 35.5403 34.0392 35.9018 33.1915 35.9654H31.9915V43.1679C31.9915 44.0093 31.6785 44.7414 31.0525 45.3644C30.4268 45.9878 29.696 46.2994 28.86 46.2994H19.152ZM23.9985 24.5024C25.5748 24.5024 26.9172 23.9508 28.0255 22.8474C29.1338 21.7441 29.688 20.4043 29.688 18.8279C29.688 17.2516 29.1352 15.9093 28.0295 14.801C26.9238 13.6926 25.5812 13.1385 24.0015 13.1385C22.4252 13.1385 21.0848 13.6913 19.9805 14.7969C18.8762 15.9026 18.324 17.2453 18.324 18.8249C18.324 20.4013 18.8757 21.7416 19.979 22.8459C21.0823 23.9503 22.4222 24.5024 23.9985 24.5024ZM19.3435 42.9764H28.6685V36.0014H19.3435V42.9764ZM15.024 32.6789H32.988V5.01245H15.024V32.6789ZM24.002 21.3589C23.2817 21.3589 22.6792 21.1161 22.1945 20.6304C21.7098 20.1448 21.4675 19.5429 21.4675 18.8249C21.4675 18.1073 21.7103 17.5039 22.196 17.0149C22.6817 16.5263 23.2835 16.2819 24.0015 16.2819C24.7195 16.2819 25.3228 16.5256 25.8115 17.0129C26.3002 17.5003 26.5445 18.1041 26.5445 18.8244C26.5445 19.5448 26.3008 20.1473 25.8135 20.6319C25.3262 21.1166 24.7223 21.3589 24.002 21.3589Z" fill="#0047AB"/>
</svg>
