<svg width="48" height="48" viewBox="0 0 48 48" fill="none" xmlns="http://www.w3.org/2000/svg">
<path d="M24 40.8041C27.4934 39.6054 30.3905 37.4658 32.6915 34.3851C34.9922 31.3041 36.3425 27.8423 36.7425 23.9996H24V7.36909L11.1075 12.1831V21.8996C11.1075 22.2916 11.1159 22.6333 11.1325 22.9246C11.1492 23.2159 11.1909 23.5743 11.2575 23.9996H24V40.8041ZM24 44.0866C23.8094 44.0866 23.6272 44.0679 23.4535 44.0306C23.2795 43.9933 23.1012 43.9373 22.9185 43.8626C18.2452 42.2959 14.5407 39.4518 11.805 35.3301C9.06905 31.2084 7.70105 26.7149 7.70105 21.8496V12.1331C7.70105 11.4121 7.90638 10.7554 8.31705 10.1631C8.72738 9.57075 9.25972 9.14592 9.91405 8.88859L22.8065 4.07458C23.2132 3.92525 23.611 3.85059 24 3.85059C24.389 3.85059 24.7869 3.92525 25.1935 4.07458L38.086 8.88859C38.7404 9.14592 39.2747 9.57075 39.689 10.1631C40.1037 10.7554 40.311 11.4121 40.311 12.1331V21.8496C40.311 26.7149 38.941 31.2084 36.201 35.3301C33.4614 39.4518 29.7549 42.2959 25.0815 43.8626C24.8989 43.9373 24.7205 43.9933 24.5465 44.0306C24.3729 44.0679 24.1907 44.0866 24 44.0866Z" fill="#0047AB"/>
</svg>
