<svg width="48" height="48" viewBox="0 0 48 48" fill="none" xmlns="http://www.w3.org/2000/svg">
<path d="M13.0499 40.1317C12.1406 40.1317 11.3914 39.8369 10.8024 39.2472C10.2131 38.6579 9.91841 37.9084 9.91841 36.9987C9.91841 36.3677 10.0764 35.7654 10.3924 35.1917C10.7084 34.6177 11.1626 34.21 11.7549 33.9687L20.2684 30.6047V24.0037C18.2764 26.373 16.2667 28.2205 14.2394 29.5462C12.2124 30.8715 9.96191 31.6522 7.48791 31.8882C7.05291 31.9629 6.67424 31.8347 6.35191 31.5037C6.02957 31.1727 5.86841 30.7737 5.86841 30.3067C5.86841 29.8687 6.02407 29.4874 6.33541 29.1627C6.64641 28.8377 7.02191 28.6379 7.46191 28.5632C9.39024 28.3289 11.1604 27.7139 12.7724 26.7182C14.3841 25.7229 15.8407 24.3912 17.1424 22.7232L20.0424 19.4612C20.3871 19.0452 20.7932 18.7019 21.2609 18.4312C21.7286 18.1605 22.2416 18.0252 22.7999 18.0252H25.1999C25.7582 18.0252 26.2796 18.1625 26.7639 18.4372C27.2482 18.7119 27.6627 19.0572 28.0074 19.4732L30.9074 22.7467C32.2757 24.3484 33.7491 25.6595 35.3274 26.6802C36.9061 27.7012 38.6429 28.3289 40.5379 28.5632C40.9779 28.6379 41.3534 28.8377 41.6644 29.1627C41.9757 29.4874 42.1314 29.8687 42.1314 30.3067C42.1314 30.7737 41.9702 31.1727 41.6479 31.5037C41.3256 31.8347 40.9469 31.9629 40.5119 31.8882C38.0379 31.6522 35.7874 30.8715 33.7604 29.5462C31.7331 28.2205 29.7234 26.373 27.7314 24.0037V30.6047L36.2599 33.9687C36.8422 34.21 37.2914 34.6174 37.6074 35.1907C37.9234 35.7644 38.0814 36.3664 38.0814 36.9967C38.0814 37.9057 37.7867 38.6554 37.1974 39.2457C36.6084 39.8364 35.8592 40.1317 34.9499 40.1317H19.7999V39.4502C19.7999 38.5595 20.0686 37.8535 20.6059 37.3322C21.1432 36.8109 21.8412 36.5502 22.6999 36.5502H29.3499C29.6166 36.5502 29.8499 36.4502 30.0499 36.2502C30.2499 36.0502 30.3499 35.8169 30.3499 35.5502C30.3499 35.2835 30.2499 35.0502 30.0499 34.8502C29.8499 34.6502 29.6166 34.5502 29.3499 34.5502H22.6999C21.2412 34.5502 20.0766 35.0002 19.2059 35.9002C18.3352 36.8002 17.8999 37.9835 17.8999 39.4502V40.1317H13.0499ZM24.0029 15.0252C22.9609 15.0252 22.0697 14.6544 21.3294 13.9127C20.5887 13.1714 20.2184 12.2777 20.2184 11.2317C20.2184 10.189 20.5877 9.29819 21.3264 8.55919C22.0651 7.81986 22.9552 7.4502 23.9969 7.4502C25.0389 7.4502 25.9301 7.82036 26.6704 8.5607C27.4111 9.30103 27.7814 10.1932 27.7814 11.2372C27.7814 12.2815 27.4121 13.1739 26.6734 13.9142C25.9347 14.6549 25.0446 15.0252 24.0029 15.0252Z" fill="#0047AB"/>
</svg>
