<svg width="48" height="48" viewBox="0 0 48 48" fill="none" xmlns="http://www.w3.org/2000/svg">
<path d="M32.4815 34.8685L8.89455 11.2695C8.54688 10.9299 8.37305 10.534 8.37305 10.082C8.37305 9.63038 8.54688 9.23055 8.89455 8.88255C9.23455 8.54288 9.63038 8.37305 10.082 8.37305C10.534 8.37305 10.9339 8.54288 11.2815 8.88255L34.8685 32.4815V19.7715C34.8685 19.2909 35.033 18.8869 35.362 18.5595C35.691 18.2322 36.0972 18.0685 36.5805 18.0685C37.0639 18.0685 37.467 18.2322 37.79 18.5595C38.1134 18.8869 38.275 19.2909 38.275 19.7715V36.5715C38.275 37.0525 38.1114 37.4567 37.784 37.784C37.4567 38.1114 37.0525 38.275 36.5715 38.275H19.7715C19.2909 38.275 18.8869 38.1105 18.5595 37.7815C18.2322 37.4525 18.0685 37.0464 18.0685 36.563C18.0685 36.0797 18.2322 35.6765 18.5595 35.3535C18.8869 35.0302 19.2909 34.8685 19.7715 34.8685H32.4815Z" fill="#0047AB"/>
</svg>
