<svg width="48" height="48" viewBox="0 0 48 48" fill="none" xmlns="http://www.w3.org/2000/svg">
<path d="M10.0111 21.562L4.55855 18.474C4.29388 18.3343 4.08472 18.1328 3.93105 17.8695C3.77772 17.6065 3.70105 17.3188 3.70105 17.0065V10.7545C3.70105 10.4421 3.77772 10.1545 3.93105 9.89146C4.08472 9.62813 4.29388 9.42663 4.55855 9.28696L10.0111 6.21096C10.2654 6.06163 10.5446 5.98696 10.8486 5.98696C11.1526 5.98696 11.437 6.06163 11.702 6.21096L17.1665 9.28696C17.4232 9.42663 17.6304 9.62813 17.7881 9.89146C17.9454 10.1545 18.0241 10.4421 18.0241 10.7545V17.0065C18.0241 17.3188 17.9454 17.6065 17.7881 17.8695C17.6304 18.1328 17.4232 18.3343 17.1665 18.474L11.702 21.562C11.4477 21.7113 11.1685 21.786 10.8645 21.786C10.5605 21.786 10.2761 21.7113 10.0111 21.562ZM10.8566 18.239L14.701 16.035V11.726L10.8566 9.52146L7.02405 11.726V16.035L10.8566 18.239ZM32.811 22.4945V18.674L38.6076 22.0545C39.1465 22.3731 39.5652 22.7883 39.8636 23.3C40.1619 23.8116 40.311 24.366 40.311 24.963V35.276C40.311 35.8653 40.1619 36.4176 39.8636 36.933C39.5652 37.4486 39.1465 37.862 38.6076 38.173L29.8585 43.2915C29.3172 43.5978 28.7429 43.751 28.1356 43.751C27.5279 43.751 26.9589 43.5978 26.4286 43.2915L17.6796 38.173C17.1406 37.862 16.7239 37.4486 16.4296 36.933C16.1352 36.4176 15.9881 35.8653 15.9881 35.276V24.963C15.9881 24.366 16.1352 23.8116 16.4296 23.3C16.7239 22.7883 17.1406 22.3731 17.6796 22.0545L23.4881 18.674V22.4945L19.3111 24.9535V35.3115L28.1436 40.4285L36.988 35.3115V24.9535L32.811 22.4945ZM29.811 15.012V25.3565C29.811 25.8215 29.6485 26.2136 29.3235 26.533C28.9982 26.8523 28.6019 27.012 28.1346 27.012C27.6672 27.012 27.276 26.8523 26.9611 26.533C26.6457 26.2136 26.4881 25.8215 26.4881 25.3565V5.40446C26.4881 4.92346 26.6517 4.5173 26.9791 4.18596C27.3064 3.85463 27.7106 3.68896 28.1916 3.68896H41.1786C41.8415 3.68896 42.3387 3.99346 42.6701 4.60246C43.0017 5.2118 42.9769 5.7983 42.5955 6.36196L41.225 8.38696C41.0344 8.67363 40.9391 8.9938 40.9391 9.34746C40.9391 9.70146 41.0344 10.0276 41.225 10.326L42.5955 12.339C42.9769 12.9106 43.0017 13.4991 42.6701 14.1045C42.3387 14.7095 41.8415 15.012 41.1786 15.012H29.811Z" fill="#0047AB"/>
</svg>
