<svg width="48" height="48" viewBox="0 0 48 48" fill="none" xmlns="http://www.w3.org/2000/svg">
<path d="M13.4285 33.7534C10.7095 33.7534 8.4125 32.8253 6.5375 30.9689C4.6625 29.1126 3.725 26.8063 3.725 24.0499C3.725 21.2936 4.65217 18.9873 6.5065 17.1309C8.36083 15.2746 10.6698 14.3464 13.4335 14.3464C15.1342 14.3464 16.6473 14.7131 17.973 15.4464C19.299 16.1798 20.3993 17.2298 21.274 18.5964H38.8215C40.3365 18.5964 41.6242 19.1276 42.6845 20.1899C43.7448 21.2519 44.275 22.5416 44.275 24.0589C44.275 25.5759 43.7448 26.8626 42.6845 27.9189C41.6242 28.9753 40.3365 29.5034 38.8215 29.5034H21.274C20.3977 30.8701 19.298 31.9201 17.975 32.6534C16.6517 33.3868 15.1362 33.7534 13.4285 33.7534ZM22.8055 26.2284H38.8205C39.4608 26.2284 39.9842 26.0253 40.3905 25.6189C40.7968 25.2126 41 24.6896 41 24.0499C41 23.4103 40.7968 22.8873 40.3905 22.4809C39.9842 22.0746 39.4608 21.8714 38.8205 21.8714H22.8055C22.9388 22.1891 23.0265 22.5439 23.0685 22.9359C23.1105 23.3279 23.1315 23.6993 23.1315 24.0499C23.1315 24.4006 23.1105 24.7719 23.0685 25.1639C23.0265 25.5559 22.9388 25.9108 22.8055 26.2284ZM13.4325 30.4784C15.2472 30.4784 16.7735 29.8599 18.0115 28.6229C19.2495 27.3859 19.8685 25.8603 19.8685 24.0459C19.8685 22.2313 19.2492 20.7069 18.0105 19.4729C16.7722 18.2386 15.2445 17.6214 13.4275 17.6214C11.6105 17.6214 10.085 18.2399 8.851 19.4769C7.617 20.7139 7 22.2396 7 24.0539C7 25.8686 7.6185 27.3929 8.8555 28.6269C10.0922 29.8613 11.6178 30.4784 13.4325 30.4784Z" fill="#E6EDF7"/>
</svg>
