<svg width="48" height="48" viewBox="0 0 48 48" fill="none" xmlns="http://www.w3.org/2000/svg">
<path d="M7.14344 34.2626C6.19844 34.2626 5.39444 33.9311 4.73144 33.2681C4.06844 32.6051 3.73694 31.8011 3.73694 30.8561V17.1431C3.73694 16.1948 4.06844 15.3879 4.73144 14.7226C5.39444 14.0573 6.19844 13.7246 7.14344 13.7246H40.8564C41.8048 13.7246 42.6116 14.0573 43.2769 14.7226C43.9423 15.3879 44.2749 16.1948 44.2749 17.1431V30.8561C44.2749 31.8011 43.9423 32.6051 43.2769 33.2681C42.6116 33.9311 41.8048 34.2626 40.8564 34.2626H7.14344ZM7.14344 30.8561H40.8564V17.1431H34.9869C35.3549 17.6668 35.6456 18.2411 35.8589 18.8661C36.0726 19.4911 36.1794 20.1424 36.1794 20.8201C36.1794 22.7201 35.4878 24.3618 34.1044 25.7451C32.7211 27.1284 31.0794 27.8201 29.1794 27.8201H18.8204C16.9204 27.8201 15.2788 27.1284 13.8954 25.7451C12.5121 24.3618 11.8204 22.7201 11.8204 20.8201C11.8204 20.1424 11.9273 19.4911 12.1409 18.8661C12.3543 18.2411 12.6449 17.6668 13.0129 17.1431H7.14344V30.8561ZM18.8204 24.4976H22.3444V17.1431H18.8204C17.8494 17.1431 16.9939 17.5098 16.2539 18.2431C15.5136 18.9764 15.1434 19.8321 15.1434 20.8101C15.1434 21.7878 15.5136 22.6468 16.2539 23.3871C16.9939 24.1274 17.8494 24.4976 18.8204 24.4976ZM25.6674 24.4976H29.1794C30.1598 24.4976 31.0178 24.1291 31.7534 23.3921C32.4888 22.6554 32.8564 21.7959 32.8564 20.8136C32.8564 19.8309 32.4888 18.9736 31.7534 18.2416C31.0178 17.5093 30.1598 17.1431 29.1794 17.1431H25.6674V24.4976Z" fill="#0047AB"/>
</svg>
