<svg width="48" height="48" viewBox="0 0 48 48" fill="none" xmlns="http://www.w3.org/2000/svg">
<path d="M14.5714 17.985H5.33543C4.86576 17.985 4.47593 17.8291 4.16593 17.5175C3.85593 17.2058 3.70093 16.8168 3.70093 16.3505C3.70093 15.8838 3.85593 15.4956 4.16593 15.186C4.47593 14.8763 4.86576 14.7215 5.33543 14.7215H14.5714V7.85545L11.8609 10.5785C11.5309 10.9021 11.1456 11.064 10.7049 11.064C10.2639 11.064 9.87443 10.9021 9.53643 10.5785C9.22643 10.2545 9.07343 9.87045 9.07743 9.42645C9.08143 8.98279 9.24543 8.59895 9.56943 8.27495L15.0099 2.83495C15.3496 2.49495 15.7493 2.32495 16.2089 2.32495C16.6689 2.32495 17.0688 2.49495 17.4084 2.83495L22.8609 8.28695C23.1769 8.61228 23.3388 8.99445 23.3464 9.43345C23.3544 9.87278 23.2016 10.2545 22.8879 10.5785C22.5459 10.9021 22.1529 11.064 21.7089 11.064C21.2653 11.064 20.8814 10.8981 20.5574 10.5665L17.8464 7.85545V30.0035H42.6794C43.1414 30.0035 43.5289 30.1618 43.8419 30.4785C44.1546 30.7951 44.3109 31.1875 44.3109 31.6555C44.3109 32.1201 44.1546 32.5068 43.8419 32.8155C43.5289 33.1241 43.1414 33.2785 42.6794 33.2785H33.4519V40.1445L36.1629 37.4335C36.4833 37.1018 36.8638 36.9358 37.3044 36.9355C37.7454 36.9351 38.1401 37.1011 38.4884 37.4335C38.7974 37.7575 38.9499 38.1395 38.9459 38.5794C38.9419 39.0191 38.7781 39.401 38.4544 39.725L33.0019 45.177C32.6616 45.517 32.2636 45.685 31.8079 45.681C31.3526 45.677 30.9549 45.5089 30.6149 45.177L25.1629 39.713C24.8389 39.397 24.6749 39.0191 24.6709 38.5794C24.6669 38.1395 24.8196 37.7575 25.1289 37.4335C25.4749 37.1011 25.8681 36.9371 26.3084 36.9415C26.7484 36.9458 27.1344 37.1098 27.4664 37.4335L30.1649 40.1445V33.2785H17.8464C16.9098 33.2785 16.1298 32.9693 15.5064 32.351C14.8831 31.733 14.5714 30.9505 14.5714 30.0035V17.985ZM30.1649 27.0035V17.985H20.8464V14.7215H30.1649C31.1106 14.7215 31.8949 15.0308 32.5179 15.6495C33.1406 16.2678 33.4519 17.0463 33.4519 17.985V27.0035H30.1649Z" fill="#0047AB"/>
</svg>
