<svg width="48" height="48" viewBox="0 0 48 48" fill="none" xmlns="http://www.w3.org/2000/svg">
<path d="M7.703 44.1314C6.07767 44.1314 4.699 43.5662 3.567 42.4359C2.43467 41.3056 1.8685 39.9279 1.8685 38.3029C1.8685 36.6776 2.43367 35.2989 3.564 34.1669C4.69433 33.0346 6.072 32.4684 7.697 32.4684C9.32233 32.4684 10.701 33.0336 11.833 34.1639C12.9653 35.2942 13.5315 36.6719 13.5315 38.2969C13.5315 39.9222 12.9663 41.3009 11.836 42.4329C10.7057 43.5652 9.328 44.1314 7.703 44.1314ZM7.7 40.9999C8.5 40.9999 9.15 40.7499 9.65 40.2499C10.15 39.7499 10.4 39.0999 10.4 38.2999C10.4 37.4999 10.15 36.8499 9.65 36.3499C9.15 35.8499 8.5 35.5999 7.7 35.5999C6.9 35.5999 6.25 35.8499 5.75 36.3499C5.25 36.8499 5 37.4999 5 38.2999C5 39.0999 5.25 39.7499 5.75 40.2499C6.25 40.7499 6.9 40.9999 7.7 40.9999ZM24.8315 25.9999V40.7249C24.8315 41.6616 24.4978 42.4634 23.8305 43.1304C23.1635 43.7977 22.3617 44.1314 21.425 44.1314H17.051C16.5887 44.1314 16.2012 43.9744 15.8885 43.6604C15.5758 43.3467 15.4195 42.9577 15.4195 42.4934C15.4195 42.0294 15.5758 41.6426 15.8885 41.3329C16.2012 41.0232 16.5887 40.8684 17.051 40.8684H21.5685V25.9999C21.5685 24.7849 21.1358 23.7447 20.2705 22.8794C19.4052 22.0141 18.365 21.5814 17.15 21.5814H7.2315V27.8609C7.2315 28.3316 7.0745 28.7127 6.7605 29.0044C6.44683 29.2964 6.05783 29.4424 5.5935 29.4424C5.1295 29.4424 4.74267 29.2861 4.433 28.9734C4.12333 28.6607 3.9685 28.2732 3.9685 27.8109V21.6769C3.9685 20.7532 4.29733 19.9626 4.955 19.3049C5.61267 18.6472 6.40333 18.3184 7.327 18.3184H10.2185V10.7999C10.2185 8.35791 11.0965 6.25874 12.8525 4.50241C14.6088 2.74641 16.7073 1.86841 19.148 1.86841C21.04 1.86841 22.7312 2.35774 24.2215 3.33641C25.7122 4.31507 26.8155 5.66624 27.5315 7.38991L41.3955 40.8684H44.5C44.9623 40.8684 45.3498 41.0254 45.6625 41.3394C45.9752 41.6531 46.1315 42.0421 46.1315 42.5064C46.1315 42.9704 45.9752 43.3572 45.6625 43.6669C45.3498 43.9766 44.9623 44.1314 44.5 44.1314H34.2C33.7377 44.1314 33.3502 43.9744 33.0375 43.6604C32.7248 43.3467 32.5685 42.9577 32.5685 42.4934C32.5685 42.0294 32.7248 41.6426 33.0375 41.3329C33.3502 41.0232 33.7377 40.8684 34.2 40.8684H37.9965L24.3195 8.75091C23.8268 7.62191 23.15 6.73641 22.289 6.09441C21.428 5.45241 20.3817 5.13141 19.15 5.13141C17.5977 5.13141 16.2648 5.68808 15.1515 6.80141C14.0382 7.91474 13.4815 9.24841 13.4815 10.8024V18.3184H17.158C19.2953 18.3184 21.1085 19.0631 22.5975 20.5524C24.0868 22.0414 24.8315 23.8572 24.8315 25.9999Z" fill="#E6EDF7"/>
</svg>
