<svg width="48" height="48" viewBox="0 0 48 48" fill="none" xmlns="http://www.w3.org/2000/svg">
<path d="M7.3251 13.3996C7.3251 11.8233 7.87676 10.4833 8.9801 9.37961C10.0838 8.27627 11.4238 7.72461 13.0001 7.72461H35.0001C36.5764 7.72461 37.9164 8.27627 39.0201 9.37961C40.1234 10.4833 40.6751 11.8233 40.6751 13.3996V17.3106C42.2831 17.2076 43.6184 17.6074 44.6811 18.5101C45.7438 19.4124 46.2751 20.6923 46.2751 22.3496V34.5996C46.2751 36.1759 45.7234 37.5159 44.6201 38.6196C43.5164 39.7229 42.1764 40.2746 40.6001 40.2746H7.4001C5.82376 40.2746 4.48376 39.7229 3.3801 38.6196C2.27676 37.5159 1.7251 36.1759 1.7251 34.5996V22.3496C1.7251 20.6923 2.26276 19.4124 3.3381 18.5101C4.41343 17.6074 5.74243 17.2076 7.3251 17.3106V13.3996ZM10.7316 13.3996V18.7486C11.2539 19.2469 11.6584 19.7469 11.9451 20.2486C12.2318 20.7499 12.3751 21.4503 12.3751 22.3496V28.2746H35.6251V22.3496C35.6251 21.4503 35.7684 20.7499 36.0551 20.2486C36.3418 19.7469 36.7463 19.2469 37.2686 18.7486V13.3996C37.2686 12.7369 37.0563 12.1931 36.6316 11.7681C36.2066 11.3434 35.6628 11.1311 35.0001 11.1311H13.0001C12.3424 11.1311 11.7999 11.3434 11.3726 11.7681C10.9453 12.1931 10.7316 12.7369 10.7316 13.3996ZM39.0316 31.6811H8.9686V22.3496C8.9686 22.0319 8.92943 21.7554 8.8511 21.5201C8.77276 21.2848 8.6501 21.0836 8.4831 20.9166C8.3161 20.7496 8.1151 20.6269 7.8801 20.5486C7.6451 20.4703 7.3756 20.4311 7.0716 20.4311C6.4306 20.4311 5.94693 20.5949 5.6206 20.9226C5.2946 21.2503 5.1316 21.7259 5.1316 22.3496V34.6076C5.1316 35.2599 5.34526 35.7998 5.7726 36.2271C6.19993 36.6544 6.74243 36.8681 7.4001 36.8681H40.6001C41.2628 36.8681 41.8066 36.6544 42.2316 36.2271C42.6563 35.7998 42.8686 35.2599 42.8686 34.6076V22.3496C42.8686 21.7259 42.7048 21.2503 42.3771 20.9226C42.0494 20.5949 41.5684 20.4311 40.9341 20.4311C40.6354 20.4311 40.3683 20.4703 40.1326 20.5486C39.8969 20.6269 39.6971 20.7496 39.5331 20.9166C39.3691 21.0836 39.2444 21.2848 39.1591 21.5201C39.0741 21.7554 39.0316 22.0319 39.0316 22.3496V31.6811Z" fill="#0047AB"/>
</svg>
