<svg width="48" height="48" viewBox="0 0 48 48" fill="none" xmlns="http://www.w3.org/2000/svg">
<path d="M9.10743 42.299C8.16243 42.299 7.35843 41.9675 6.69543 41.3045C6.03243 40.6415 5.70093 39.8375 5.70093 38.8925V9.10746C5.70093 8.15913 6.03243 7.3523 6.69543 6.68696C7.35843 6.02163 8.16243 5.68896 9.10743 5.68896H38.8924C39.8408 5.68896 40.6476 6.02163 41.3129 6.68696C41.9783 7.3523 42.3109 8.15913 42.3109 9.10746V38.8925C42.3109 39.8375 41.9783 40.6415 41.3129 41.3045C40.6476 41.9675 39.8408 42.299 38.8924 42.299H9.10743ZM25.4999 25.5V38.8925H38.8924V25.5H25.4999ZM25.4999 22.5H38.8924V9.10746H25.4999V22.5ZM22.4999 22.5V9.10746H9.10743V22.5H22.4999ZM22.4999 25.5H9.10743V38.8925H22.4999V25.5Z" fill="#0047AB"/>
</svg>
