<svg width="48" height="48" viewBox="0 0 48 48" fill="none" xmlns="http://www.w3.org/2000/svg">
<path d="M11.2035 42.2039C10.2668 42.2039 9.46483 41.8702 8.7975 41.2029C8.13017 40.5355 7.7965 39.7335 7.7965 38.7969V9.20388C7.7965 8.26721 8.13017 7.46521 8.7975 6.79788C9.46483 6.13054 10.2668 5.79688 11.2035 5.79688H36.7965C37.7332 5.79688 38.5352 6.13054 39.2025 6.79788C39.8698 7.46521 40.2035 8.26721 40.2035 9.20388V38.7969C40.2035 39.7335 39.8698 40.5355 39.2025 41.2029C38.5352 41.8702 37.7332 42.2039 36.7965 42.2039H11.2035ZM11.2035 22.2969H21.7965V21.1429C21.7965 20.9189 21.882 20.7219 22.053 20.5519C22.224 20.3819 22.4235 20.2969 22.6515 20.2969H25.361C25.5827 20.2969 25.7785 20.3819 25.9485 20.5519C26.1185 20.7219 26.2035 20.9189 26.2035 21.1429V22.2969H36.7965V9.20388H11.2035V22.2969Z" fill="#0047AB"/>
</svg>
